<svg width="1280" height="320" viewBox="0 0 1280 320" fill="none" xmlns="http://www.w3.org/2000/svg">
<path d="M102.074 50C100.016 60.74 103.86 72.296 115.317 84.608C119.666 81.692 127.588 80.232 134.734 81.344C120.272 69.4 108.909 62.492 102.074 50ZM40.0893 52.496C45.6699 71.08 60.2447 93.368 79.0835 109.168C65.068 108.248 48.1437 103.088 36.0388 99.048C45.732 113.128 60.9592 120.208 76.1709 125.568C66.4738 132.648 54.2524 137.8 36 141.048C57.2194 148.728 77.7631 144.608 87.0058 141.328C80.0544 155.288 47.8913 167.808 39.5068 172.128C60.1903 173.808 86.7728 167.728 104.365 158.968C108.249 168.808 103.744 180.248 100.443 190.088C99.7049 191.888 98.967 193.648 98.2291 195.408C100.21 194.008 102.151 192.608 104.016 191.168C113.181 184.688 122.579 178.408 127.122 167.648C137.258 180.128 151.472 192.488 168.676 201.808C175.433 210.648 179.666 221.408 181.957 231.328C185.181 223.688 187.317 215.248 185.724 207.208C195.239 205.768 199.55 195.328 199.511 185.448C194.617 187.928 193.647 187.968 187.394 188.728C187.394 184.688 187.627 183.728 186.229 177.248C182.229 180.608 178.074 181.728 174.268 181.968C175.084 178.928 175.433 174.168 175.705 171.048C170.656 173.888 168.249 174.928 164.016 175.368C163.86 171.008 163.977 167.368 162.423 163.208C150.928 170.808 143.55 163.808 136.016 154.688C143.705 147.888 173.452 145.968 172.948 157.528C178.384 154.608 180.249 153.048 182.113 151.168C185.647 154.568 187.317 159.528 187.977 163.728C191.588 159.968 191.977 159.528 194.617 154.208C196.831 158.248 198.035 161.008 198.773 166.448C202.074 163.968 204.753 161.208 206.462 157.888C209.375 164.088 209.685 164.288 211.278 171.088C218.19 165.848 219.744 158.608 220.132 152.048C220.909 138.848 220.016 108.768 208.093 94.888C208.753 109.408 203.006 122.888 194.967 127.168C190.074 129.128 157.491 97.328 141.53 89.848C132.404 85.768 122.85 92.688 115.2 93.568C85.8408 84.328 61.2078 70.224 40.0893 52.496ZM143.744 102.968C148.909 111.328 156.249 117.728 167.084 124.968C159.55 126.128 141.53 122.288 136.909 115.368C134.773 112.208 139.666 106.848 143.744 102.968ZM98.8893 169.488C93.2971 171.968 87.5495 173.848 81.8796 175.208C80.9476 176.648 80.0932 178.048 79.2777 179.408C85.0252 181.528 91.5107 182.208 96.4039 180.528C97.6854 176.608 98.5398 172.808 98.8893 169.488ZM72.4816 177.128L68.5204 177.728C56.167 192.368 44.4816 219.008 49.7864 238.488L63.8175 263.5V238.488C59.499 223.408 57.3981 203.648 72.4816 177.128ZM75.7825 185.728C73.4913 190.288 71.7437 194.568 70.4233 198.568C75.433 201.248 81.7243 202.128 87.8214 201.848C89.6078 197.648 91.6272 193.128 93.4913 188.528C87.5107 189.248 81.2971 187.968 75.7825 185.728ZM119.045 188.368C114.384 192.568 109.258 196.488 103.938 200.208C106.656 213.808 116.909 225.568 132.637 238.488V248.848C136.484 242.621 138.746 238.626 143.122 229.848C120.21 212.848 119.433 195.848 119.045 188.368ZM68.5592 205.648C67.5883 210.368 67.2777 214.728 67.3942 218.808C81.8796 224.488 91.666 224.208 105.258 220.448C102.462 216.328 100.21 212.048 98.6951 207.528C85.9961 211.288 77.1806 209.808 68.5592 205.648ZM109.957 226.608C95.1612 230.968 83.2388 231.888 68.2097 226.728C68.9087 230.888 69.9573 234.768 71.1223 238.488C71.1223 238.488 87.8214 240.248 98.2291 243.848C108.637 247.448 121.647 270.848 121.647 270.848V238.488C117.258 234.568 113.336 230.648 109.957 226.608Z" fill="#EA3333" stroke="black" stroke-width="4"/>
<mask id="path-2-outside-1_4_3" maskUnits="userSpaceOnUse" x="253" y="99" width="995" height="149" fill="black">
<rect fill="white" x="253" y="99" width="995" height="149"/>
<path d="M306.381 102C302.557 102 264.979 122.405 260.489 124.412C257.995 125.582 257.829 127.589 258.328 128.593L260.157 132.273C260.656 133.276 261.986 134.112 263.981 133.778C270.466 132.607 277.948 131.604 288.756 131.604C297.735 131.604 305.882 132.942 313.032 135.45C301.559 139.632 289.754 141.471 280.11 143.478C278.946 143.646 278.447 144.482 279.278 145.653C280.609 147.66 282.271 149.332 282.604 151.506L257.496 156.357C256.499 156.524 256 157.193 256 158.196V160.036C256 161.04 256.499 161.542 257.496 161.709L282.438 165.556V168.232L257.496 173.082C256.499 173.249 256 173.918 256 174.922V176.761C256 177.765 256.499 178.267 257.496 178.434L282.438 182.281L282.271 194.323L269.468 201.515C267.473 202.685 267.805 204.191 269.801 204.525C272.129 204.86 285.264 207.87 294.409 210.379C301.725 212.386 316.524 218.073 321.346 218.073C323.507 218.073 328.994 216.065 333.484 214.226C366.739 200.678 378.045 187.967 378.045 161.374C378.045 128.091 349.613 102 306.381 102ZM319.351 185.96L319.849 138.294C335.479 146.154 344.791 159.702 344.791 174.253C344.791 180.274 342.962 186.629 339.304 192.818L319.351 185.96ZM426.265 189.64V152.844L440.066 176.427C440.731 177.43 441.895 177.765 443.059 177.43C444.223 177.096 445.054 176.26 445.054 175.256V130.433C445.054 128.927 442.892 127.757 442.061 127.757C441.063 127.757 441.063 128.258 426.265 143.311V136.621C426.265 135.785 425.766 135.116 424.935 134.781L403.485 127.088C402.654 126.753 401.823 127.088 401.324 127.757L383.533 150.168C382.867 151.005 382.867 152.008 384.031 152.343L391.347 155.019V197.501L385.694 203.187C384.863 204.023 385.029 204.86 386.359 205.361L421.942 217.404C423.937 218.073 426.265 217.738 427.595 216.567L447.216 199.173C448.213 198.17 447.881 197.333 446.717 196.999L426.265 189.64ZM521.041 217.738C521.873 218.073 522.704 218.073 523.369 217.236L542.491 194.992C543.322 193.988 543.156 193.152 542.158 192.65L535.674 189.473V136.287C535.674 135.283 535.175 134.614 534.177 134.447C518.048 131.269 491.445 125.917 488.285 125.917C485.126 125.917 471.658 135.952 461.016 143.646C458.19 145.82 459.852 148.329 461.349 148.496L500.59 154.35V155.353C471.824 155.353 453.7 169.904 453.7 186.629C453.7 196.832 459.686 207.87 473.154 217.404C473.986 217.905 474.651 217.738 475.482 217.404L500.756 204.358V207.536C500.756 208.372 501.255 209.041 502.086 209.375L521.041 217.738ZM500.756 197.501C496.932 195.995 489.782 191.647 489.782 181.277C489.782 171.242 496.932 167.228 500.756 164.887V197.501ZM640.426 224.094C635.771 217.404 632.279 206.867 632.279 199.34V149.332L638.764 143.144C639.761 142.14 639.429 141.471 638.265 140.97L595.865 126.084C562.444 138.795 547.811 159.702 547.978 179.27C547.978 193.152 555.46 206.198 569.095 215.229L550.306 228.944C549.474 229.446 549.142 230.282 549.973 230.951C554.795 235.467 580.235 245 593.371 245C598.026 245 607.171 241.153 614.321 238.31C625.129 233.961 634.607 229.278 639.928 226.435C640.925 225.933 640.925 225.097 640.426 224.094ZM597.361 155.353V195.159C588.549 187.465 584.392 178.099 584.392 168.733C584.392 163.047 586.221 157.36 589.546 152.008L597.361 155.353ZM597.361 203.02V205.696C597.86 219.076 601.352 221.919 606.174 227.773C594.701 224.93 587.717 218.742 580.568 213.389L597.361 203.02ZM689.976 217.571C693.135 217.571 700.285 214.226 708.931 208.706C722.4 200.009 730.713 190.643 730.713 170.239C730.713 141.806 700.95 127.757 694.798 127.757C688.48 127.757 675.011 134.112 651.733 135.952C650.236 136.119 650.236 137.123 650.236 138.126V199.006L644.916 202.853C643.752 203.689 643.752 205.529 644.916 205.863C659.548 210.546 687.814 217.571 689.976 217.571ZM682.66 190.811V151.172C691.306 158.364 696.627 168.064 696.96 177.765C697.126 183.117 695.796 189.305 692.803 194.323L682.66 190.811ZM823.162 188.302V149.834L829.979 143.478C830.811 142.642 830.977 141.806 829.813 141.137L803.375 126.753C802.544 126.251 801.879 126.251 801.047 126.92L778.6 143.813V137.457C778.6 136.621 778.102 135.785 777.27 135.45L755.987 126.753C755.156 126.419 754.324 126.753 753.826 127.422L736.034 149.667C735.369 150.503 735.535 151.506 736.533 152.008L743.683 155.855V192.818L737.531 199.508C736.699 200.344 736.699 201.18 737.697 201.849L763.469 217.404C764.467 218.073 765.132 217.738 765.797 217.069L785.418 195.159C786.083 194.323 785.916 193.319 784.919 192.818L778.6 189.138V153.179L788.244 157.36V206.699C788.244 207.536 788.577 208.205 789.575 208.539C794.563 210.546 806.701 217.571 809.86 217.571C813.352 217.571 823.661 202.184 830.644 194.156C831.476 193.152 831.309 192.316 830.312 191.814L823.162 188.302ZM955.35 188.135V120.398C955.35 115.38 956.514 109.359 957.345 104.509C957.678 103.004 956.514 101.833 955.018 102.167L913.615 112.202C912.451 112.537 911.786 113.708 912.451 114.878C914.447 118.725 917.273 122.906 917.273 128.091V148.663H896.821V117.053C896.821 116.216 896.489 115.715 895.491 115.213L867.557 102.335C866.726 102 866.061 102 865.229 102.502C859.576 106.014 842.284 117.053 835.466 120.899C834.302 121.568 834.136 123.241 835.466 123.743C837.295 124.412 852.094 128.927 859.742 131.604V143.478L835.134 148.161C834.136 148.329 833.637 148.998 833.637 150.001V151.841C833.637 152.844 834.136 153.346 835.134 153.513L859.742 157.36V160.204L835.134 164.887C834.136 165.054 833.637 165.723 833.637 166.726V168.566C833.637 169.57 834.136 170.071 835.134 170.239L859.742 174.085V193.319L848.935 200.177C847.604 201.013 847.937 203.187 849.101 203.689L886.18 218.073C887.011 218.407 887.843 218.407 888.508 217.571L906.964 197.333C907.796 196.33 907.131 195.661 906.133 195.326L896.821 191.647V167.061H917.273V207.703C925.92 211.215 947.036 218.073 948.699 218.073C950.694 218.073 961.669 201.849 966.989 195.326C967.821 194.323 967.654 193.487 966.491 192.985L955.35 188.135ZM1038.15 217.738C1038.99 218.073 1039.82 218.073 1040.48 217.236L1059.6 194.992C1060.44 193.988 1060.27 193.152 1059.27 192.65L1052.79 189.473V136.287C1052.79 135.283 1052.29 134.614 1051.29 134.447C1035.16 131.269 1008.56 125.917 1005.4 125.917C1002.24 125.917 988.771 135.952 978.13 143.646C975.303 145.82 976.966 148.329 978.462 148.496L1017.7 154.35V155.353C988.938 155.353 970.814 169.904 970.814 186.629C970.814 196.832 976.8 207.87 990.268 217.404C991.099 217.905 991.764 217.738 992.596 217.404L1017.87 204.358V207.536C1017.87 208.372 1018.37 209.041 1019.2 209.375L1038.15 217.738ZM1017.87 197.501C1014.05 195.995 1006.9 191.647 1006.9 181.277C1006.9 171.242 1014.05 167.228 1017.87 164.887V197.501ZM1112.98 217.571C1115.97 217.571 1132.76 206.365 1142.41 200.344C1143.57 199.508 1143.41 198.337 1142.08 198.002L1105.99 187.131V146.322L1117.3 167.061C1117.8 168.064 1118.63 168.232 1119.46 167.395L1139.08 149.667C1139.91 148.83 1139.91 147.994 1139.08 147.325L1117.14 126.084C1116.47 125.582 1115.64 125.415 1114.81 125.582L1065.59 136.788C1064.26 137.123 1063.93 137.959 1065.09 138.963L1071.58 144.315V194.49L1064.09 199.842C1063.1 200.678 1063.1 201.849 1064.43 202.184C1080.72 207.536 1108.66 217.571 1112.98 217.571ZM1243.34 200.846C1240.18 200.009 1238.02 198.002 1237.35 196.163L1226.04 166.894L1234.86 163.047C1236.02 162.545 1237.19 160.204 1236.19 158.196L1222.05 129.262C1220.72 126.419 1218.4 125.582 1215.9 126.419L1186.64 135.45V131.269C1186.64 125.248 1187.47 108.356 1188.13 103.84C1188.3 103.004 1188.47 102 1187.14 102C1184.31 102 1148.39 109.526 1148.39 112.202C1148.39 113.708 1151.89 118.391 1151.89 119.561V192.149L1145.73 198.839C1144.9 199.675 1144.9 200.511 1145.9 201.18L1171.51 217.404C1172.5 218.073 1173.17 217.738 1173.83 217.069L1192.79 194.657C1193.45 193.821 1193.29 192.985 1192.29 192.316L1186.64 189.138V147.158L1189.13 146.322C1190.13 145.987 1190.96 146.489 1191.29 147.325L1199.27 165.054L1190.63 168.901C1189.8 169.235 1189.3 170.071 1189.63 171.075L1206.26 214.895C1206.92 216.735 1209.75 218.909 1213.91 217.236L1243.84 205.863C1244.5 205.529 1245 205.027 1245 203.522C1245 202.184 1244.33 201.18 1243.34 200.846Z"/>
</mask>
<path d="M306.381 102C302.557 102 264.979 122.405 260.489 124.412C257.995 125.582 257.829 127.589 258.328 128.593L260.157 132.273C260.656 133.276 261.986 134.112 263.981 133.778C270.466 132.607 277.948 131.604 288.756 131.604C297.735 131.604 305.882 132.942 313.032 135.45C301.559 139.632 289.754 141.471 280.11 143.478C278.946 143.646 278.447 144.482 279.278 145.653C280.609 147.66 282.271 149.332 282.604 151.506L257.496 156.357C256.499 156.524 256 157.193 256 158.196V160.036C256 161.04 256.499 161.542 257.496 161.709L282.438 165.556V168.232L257.496 173.082C256.499 173.249 256 173.918 256 174.922V176.761C256 177.765 256.499 178.267 257.496 178.434L282.438 182.281L282.271 194.323L269.468 201.515C267.473 202.685 267.805 204.191 269.801 204.525C272.129 204.86 285.264 207.87 294.409 210.379C301.725 212.386 316.524 218.073 321.346 218.073C323.507 218.073 328.994 216.065 333.484 214.226C366.739 200.678 378.045 187.967 378.045 161.374C378.045 128.091 349.613 102 306.381 102ZM319.351 185.96L319.849 138.294C335.479 146.154 344.791 159.702 344.791 174.253C344.791 180.274 342.962 186.629 339.304 192.818L319.351 185.96ZM426.265 189.64V152.844L440.066 176.427C440.731 177.43 441.895 177.765 443.059 177.43C444.223 177.096 445.054 176.26 445.054 175.256V130.433C445.054 128.927 442.892 127.757 442.061 127.757C441.063 127.757 441.063 128.258 426.265 143.311V136.621C426.265 135.785 425.766 135.116 424.935 134.781L403.485 127.088C402.654 126.753 401.823 127.088 401.324 127.757L383.533 150.168C382.867 151.005 382.867 152.008 384.031 152.343L391.347 155.019V197.501L385.694 203.187C384.863 204.023 385.029 204.86 386.359 205.361L421.942 217.404C423.937 218.073 426.265 217.738 427.595 216.567L447.216 199.173C448.213 198.17 447.881 197.333 446.717 196.999L426.265 189.64ZM521.041 217.738C521.873 218.073 522.704 218.073 523.369 217.236L542.491 194.992C543.322 193.988 543.156 193.152 542.158 192.65L535.674 189.473V136.287C535.674 135.283 535.175 134.614 534.177 134.447C518.048 131.269 491.445 125.917 488.285 125.917C485.126 125.917 471.658 135.952 461.016 143.646C458.19 145.82 459.852 148.329 461.349 148.496L500.59 154.35V155.353C471.824 155.353 453.7 169.904 453.7 186.629C453.7 196.832 459.686 207.87 473.154 217.404C473.986 217.905 474.651 217.738 475.482 217.404L500.756 204.358V207.536C500.756 208.372 501.255 209.041 502.086 209.375L521.041 217.738ZM500.756 197.501C496.932 195.995 489.782 191.647 489.782 181.277C489.782 171.242 496.932 167.228 500.756 164.887V197.501ZM640.426 224.094C635.771 217.404 632.279 206.867 632.279 199.34V149.332L638.764 143.144C639.761 142.14 639.429 141.471 638.265 140.97L595.865 126.084C562.444 138.795 547.811 159.702 547.978 179.27C547.978 193.152 555.46 206.198 569.095 215.229L550.306 228.944C549.474 229.446 549.142 230.282 549.973 230.951C554.795 235.467 580.235 245 593.371 245C598.026 245 607.171 241.153 614.321 238.31C625.129 233.961 634.607 229.278 639.928 226.435C640.925 225.933 640.925 225.097 640.426 224.094ZM597.361 155.353V195.159C588.549 187.465 584.392 178.099 584.392 168.733C584.392 163.047 586.221 157.36 589.546 152.008L597.361 155.353ZM597.361 203.02V205.696C597.86 219.076 601.352 221.919 606.174 227.773C594.701 224.93 587.717 218.742 580.568 213.389L597.361 203.02ZM689.976 217.571C693.135 217.571 700.285 214.226 708.931 208.706C722.4 200.009 730.713 190.643 730.713 170.239C730.713 141.806 700.95 127.757 694.798 127.757C688.48 127.757 675.011 134.112 651.733 135.952C650.236 136.119 650.236 137.123 650.236 138.126V199.006L644.916 202.853C643.752 203.689 643.752 205.529 644.916 205.863C659.548 210.546 687.814 217.571 689.976 217.571ZM682.66 190.811V151.172C691.306 158.364 696.627 168.064 696.96 177.765C697.126 183.117 695.796 189.305 692.803 194.323L682.66 190.811ZM823.162 188.302V149.834L829.979 143.478C830.811 142.642 830.977 141.806 829.813 141.137L803.375 126.753C802.544 126.251 801.879 126.251 801.047 126.92L778.6 143.813V137.457C778.6 136.621 778.102 135.785 777.27 135.45L755.987 126.753C755.156 126.419 754.324 126.753 753.826 127.422L736.034 149.667C735.369 150.503 735.535 151.506 736.533 152.008L743.683 155.855V192.818L737.531 199.508C736.699 200.344 736.699 201.18 737.697 201.849L763.469 217.404C764.467 218.073 765.132 217.738 765.797 217.069L785.418 195.159C786.083 194.323 785.916 193.319 784.919 192.818L778.6 189.138V153.179L788.244 157.36V206.699C788.244 207.536 788.577 208.205 789.575 208.539C794.563 210.546 806.701 217.571 809.86 217.571C813.352 217.571 823.661 202.184 830.644 194.156C831.476 193.152 831.309 192.316 830.312 191.814L823.162 188.302ZM955.35 188.135V120.398C955.35 115.38 956.514 109.359 957.345 104.509C957.678 103.004 956.514 101.833 955.018 102.167L913.615 112.202C912.451 112.537 911.786 113.708 912.451 114.878C914.447 118.725 917.273 122.906 917.273 128.091V148.663H896.821V117.053C896.821 116.216 896.489 115.715 895.491 115.213L867.557 102.335C866.726 102 866.061 102 865.229 102.502C859.576 106.014 842.284 117.053 835.466 120.899C834.302 121.568 834.136 123.241 835.466 123.743C837.295 124.412 852.094 128.927 859.742 131.604V143.478L835.134 148.161C834.136 148.329 833.637 148.998 833.637 150.001V151.841C833.637 152.844 834.136 153.346 835.134 153.513L859.742 157.36V160.204L835.134 164.887C834.136 165.054 833.637 165.723 833.637 166.726V168.566C833.637 169.57 834.136 170.071 835.134 170.239L859.742 174.085V193.319L848.935 200.177C847.604 201.013 847.937 203.187 849.101 203.689L886.18 218.073C887.011 218.407 887.843 218.407 888.508 217.571L906.964 197.333C907.796 196.33 907.131 195.661 906.133 195.326L896.821 191.647V167.061H917.273V207.703C925.92 211.215 947.036 218.073 948.699 218.073C950.694 218.073 961.669 201.849 966.989 195.326C967.821 194.323 967.654 193.487 966.491 192.985L955.35 188.135ZM1038.15 217.738C1038.99 218.073 1039.82 218.073 1040.48 217.236L1059.6 194.992C1060.44 193.988 1060.27 193.152 1059.27 192.65L1052.79 189.473V136.287C1052.79 135.283 1052.29 134.614 1051.29 134.447C1035.16 131.269 1008.56 125.917 1005.4 125.917C1002.24 125.917 988.771 135.952 978.13 143.646C975.303 145.82 976.966 148.329 978.462 148.496L1017.7 154.35V155.353C988.938 155.353 970.814 169.904 970.814 186.629C970.814 196.832 976.8 207.87 990.268 217.404C991.099 217.905 991.764 217.738 992.596 217.404L1017.87 204.358V207.536C1017.87 208.372 1018.37 209.041 1019.2 209.375L1038.15 217.738ZM1017.87 197.501C1014.05 195.995 1006.9 191.647 1006.9 181.277C1006.9 171.242 1014.05 167.228 1017.87 164.887V197.501ZM1112.98 217.571C1115.97 217.571 1132.76 206.365 1142.41 200.344C1143.57 199.508 1143.41 198.337 1142.08 198.002L1105.99 187.131V146.322L1117.3 167.061C1117.8 168.064 1118.63 168.232 1119.46 167.395L1139.08 149.667C1139.91 148.83 1139.91 147.994 1139.08 147.325L1117.14 126.084C1116.47 125.582 1115.64 125.415 1114.81 125.582L1065.59 136.788C1064.26 137.123 1063.93 137.959 1065.09 138.963L1071.58 144.315V194.49L1064.09 199.842C1063.1 200.678 1063.1 201.849 1064.43 202.184C1080.72 207.536 1108.66 217.571 1112.98 217.571ZM1243.34 200.846C1240.18 200.009 1238.02 198.002 1237.35 196.163L1226.04 166.894L1234.86 163.047C1236.02 162.545 1237.19 160.204 1236.19 158.196L1222.05 129.262C1220.72 126.419 1218.4 125.582 1215.9 126.419L1186.64 135.45V131.269C1186.64 125.248 1187.47 108.356 1188.13 103.84C1188.3 103.004 1188.47 102 1187.14 102C1184.31 102 1148.39 109.526 1148.39 112.202C1148.39 113.708 1151.89 118.391 1151.89 119.561V192.149L1145.73 198.839C1144.9 199.675 1144.9 200.511 1145.9 201.18L1171.51 217.404C1172.5 218.073 1173.17 217.738 1173.83 217.069L1192.79 194.657C1193.45 193.821 1193.29 192.985 1192.29 192.316L1186.64 189.138V147.158L1189.13 146.322C1190.13 145.987 1190.96 146.489 1191.29 147.325L1199.27 165.054L1190.63 168.901C1189.8 169.235 1189.3 170.071 1189.63 171.075L1206.26 214.895C1206.92 216.735 1209.75 218.909 1213.91 217.236L1243.84 205.863C1244.5 205.529 1245 205.027 1245 203.522C1245 202.184 1244.33 201.18 1243.34 200.846Z" fill="#EA3333"/>
<path d="M306.381 102C302.557 102 264.979 122.405 260.489 124.412C257.995 125.582 257.829 127.589 258.328 128.593L260.157 132.273C260.656 133.276 261.986 134.112 263.981 133.778C270.466 132.607 277.948 131.604 288.756 131.604C297.735 131.604 305.882 132.942 313.032 135.45C301.559 139.632 289.754 141.471 280.11 143.478C278.946 143.646 278.447 144.482 279.278 145.653C280.609 147.66 282.271 149.332 282.604 151.506L257.496 156.357C256.499 156.524 256 157.193 256 158.196V160.036C256 161.04 256.499 161.542 257.496 161.709L282.438 165.556V168.232L257.496 173.082C256.499 173.249 256 173.918 256 174.922V176.761C256 177.765 256.499 178.267 257.496 178.434L282.438 182.281L282.271 194.323L269.468 201.515C267.473 202.685 267.805 204.191 269.801 204.525C272.129 204.86 285.264 207.87 294.409 210.379C301.725 212.386 316.524 218.073 321.346 218.073C323.507 218.073 328.994 216.065 333.484 214.226C366.739 200.678 378.045 187.967 378.045 161.374C378.045 128.091 349.613 102 306.381 102ZM319.351 185.96L319.849 138.294C335.479 146.154 344.791 159.702 344.791 174.253C344.791 180.274 342.962 186.629 339.304 192.818L319.351 185.96ZM426.265 189.64V152.844L440.066 176.427C440.731 177.43 441.895 177.765 443.059 177.43C444.223 177.096 445.054 176.26 445.054 175.256V130.433C445.054 128.927 442.892 127.757 442.061 127.757C441.063 127.757 441.063 128.258 426.265 143.311V136.621C426.265 135.785 425.766 135.116 424.935 134.781L403.485 127.088C402.654 126.753 401.823 127.088 401.324 127.757L383.533 150.168C382.867 151.005 382.867 152.008 384.031 152.343L391.347 155.019V197.501L385.694 203.187C384.863 204.023 385.029 204.86 386.359 205.361L421.942 217.404C423.937 218.073 426.265 217.738 427.595 216.567L447.216 199.173C448.213 198.17 447.881 197.333 446.717 196.999L426.265 189.64ZM521.041 217.738C521.873 218.073 522.704 218.073 523.369 217.236L542.491 194.992C543.322 193.988 543.156 193.152 542.158 192.65L535.674 189.473V136.287C535.674 135.283 535.175 134.614 534.177 134.447C518.048 131.269 491.445 125.917 488.285 125.917C485.126 125.917 471.658 135.952 461.016 143.646C458.19 145.82 459.852 148.329 461.349 148.496L500.59 154.35V155.353C471.824 155.353 453.7 169.904 453.7 186.629C453.7 196.832 459.686 207.87 473.154 217.404C473.986 217.905 474.651 217.738 475.482 217.404L500.756 204.358V207.536C500.756 208.372 501.255 209.041 502.086 209.375L521.041 217.738ZM500.756 197.501C496.932 195.995 489.782 191.647 489.782 181.277C489.782 171.242 496.932 167.228 500.756 164.887V197.501ZM640.426 224.094C635.771 217.404 632.279 206.867 632.279 199.34V149.332L638.764 143.144C639.761 142.14 639.429 141.471 638.265 140.97L595.865 126.084C562.444 138.795 547.811 159.702 547.978 179.27C547.978 193.152 555.46 206.198 569.095 215.229L550.306 228.944C549.474 229.446 549.142 230.282 549.973 230.951C554.795 235.467 580.235 245 593.371 245C598.026 245 607.171 241.153 614.321 238.31C625.129 233.961 634.607 229.278 639.928 226.435C640.925 225.933 640.925 225.097 640.426 224.094ZM597.361 155.353V195.159C588.549 187.465 584.392 178.099 584.392 168.733C584.392 163.047 586.221 157.36 589.546 152.008L597.361 155.353ZM597.361 203.02V205.696C597.86 219.076 601.352 221.919 606.174 227.773C594.701 224.93 587.717 218.742 580.568 213.389L597.361 203.02ZM689.976 217.571C693.135 217.571 700.285 214.226 708.931 208.706C722.4 200.009 730.713 190.643 730.713 170.239C730.713 141.806 700.95 127.757 694.798 127.757C688.48 127.757 675.011 134.112 651.733 135.952C650.236 136.119 650.236 137.123 650.236 138.126V199.006L644.916 202.853C643.752 203.689 643.752 205.529 644.916 205.863C659.548 210.546 687.814 217.571 689.976 217.571ZM682.66 190.811V151.172C691.306 158.364 696.627 168.064 696.96 177.765C697.126 183.117 695.796 189.305 692.803 194.323L682.66 190.811ZM823.162 188.302V149.834L829.979 143.478C830.811 142.642 830.977 141.806 829.813 141.137L803.375 126.753C802.544 126.251 801.879 126.251 801.047 126.92L778.6 143.813V137.457C778.6 136.621 778.102 135.785 777.27 135.45L755.987 126.753C755.156 126.419 754.324 126.753 753.826 127.422L736.034 149.667C735.369 150.503 735.535 151.506 736.533 152.008L743.683 155.855V192.818L737.531 199.508C736.699 200.344 736.699 201.18 737.697 201.849L763.469 217.404C764.467 218.073 765.132 217.738 765.797 217.069L785.418 195.159C786.083 194.323 785.916 193.319 784.919 192.818L778.6 189.138V153.179L788.244 157.36V206.699C788.244 207.536 788.577 208.205 789.575 208.539C794.563 210.546 806.701 217.571 809.86 217.571C813.352 217.571 823.661 202.184 830.644 194.156C831.476 193.152 831.309 192.316 830.312 191.814L823.162 188.302ZM955.35 188.135V120.398C955.35 115.38 956.514 109.359 957.345 104.509C957.678 103.004 956.514 101.833 955.018 102.167L913.615 112.202C912.451 112.537 911.786 113.708 912.451 114.878C914.447 118.725 917.273 122.906 917.273 128.091V148.663H896.821V117.053C896.821 116.216 896.489 115.715 895.491 115.213L867.557 102.335C866.726 102 866.061 102 865.229 102.502C859.576 106.014 842.284 117.053 835.466 120.899C834.302 121.568 834.136 123.241 835.466 123.743C837.295 124.412 852.094 128.927 859.742 131.604V143.478L835.134 148.161C834.136 148.329 833.637 148.998 833.637 150.001V151.841C833.637 152.844 834.136 153.346 835.134 153.513L859.742 157.36V160.204L835.134 164.887C834.136 165.054 833.637 165.723 833.637 166.726V168.566C833.637 169.57 834.136 170.071 835.134 170.239L859.742 174.085V193.319L848.935 200.177C847.604 201.013 847.937 203.187 849.101 203.689L886.18 218.073C887.011 218.407 887.843 218.407 888.508 217.571L906.964 197.333C907.796 196.33 907.131 195.661 906.133 195.326L896.821 191.647V167.061H917.273V207.703C925.92 211.215 947.036 218.073 948.699 218.073C950.694 218.073 961.669 201.849 966.989 195.326C967.821 194.323 967.654 193.487 966.491 192.985L955.35 188.135ZM1038.15 217.738C1038.99 218.073 1039.82 218.073 1040.48 217.236L1059.6 194.992C1060.44 193.988 1060.27 193.152 1059.27 192.65L1052.79 189.473V136.287C1052.79 135.283 1052.29 134.614 1051.29 134.447C1035.16 131.269 1008.56 125.917 1005.4 125.917C1002.24 125.917 988.771 135.952 978.13 143.646C975.303 145.82 976.966 148.329 978.462 148.496L1017.7 154.35V155.353C988.938 155.353 970.814 169.904 970.814 186.629C970.814 196.832 976.8 207.87 990.268 217.404C991.099 217.905 991.764 217.738 992.596 217.404L1017.87 204.358V207.536C1017.87 208.372 1018.37 209.041 1019.2 209.375L1038.15 217.738ZM1017.87 197.501C1014.05 195.995 1006.9 191.647 1006.9 181.277C1006.9 171.242 1014.05 167.228 1017.87 164.887V197.501ZM1112.98 217.571C1115.97 217.571 1132.76 206.365 1142.41 200.344C1143.57 199.508 1143.41 198.337 1142.08 198.002L1105.99 187.131V146.322L1117.3 167.061C1117.8 168.064 1118.63 168.232 1119.46 167.395L1139.08 149.667C1139.91 148.83 1139.91 147.994 1139.08 147.325L1117.14 126.084C1116.47 125.582 1115.64 125.415 1114.81 125.582L1065.59 136.788C1064.26 137.123 1063.93 137.959 1065.09 138.963L1071.58 144.315V194.49L1064.09 199.842C1063.1 200.678 1063.1 201.849 1064.43 202.184C1080.72 207.536 1108.66 217.571 1112.98 217.571ZM1243.34 200.846C1240.18 200.009 1238.02 198.002 1237.35 196.163L1226.04 166.894L1234.86 163.047C1236.02 162.545 1237.19 160.204 1236.19 158.196L1222.05 129.262C1220.72 126.419 1218.4 125.582 1215.9 126.419L1186.64 135.45V131.269C1186.64 125.248 1187.47 108.356 1188.13 103.84C1188.3 103.004 1188.47 102 1187.14 102C1184.31 102 1148.39 109.526 1148.39 112.202C1148.39 113.708 1151.89 118.391 1151.89 119.561V192.149L1145.73 198.839C1144.9 199.675 1144.9 200.511 1145.9 201.18L1171.51 217.404C1172.5 218.073 1173.17 217.738 1173.83 217.069L1192.79 194.657C1193.45 193.821 1193.29 192.985 1192.29 192.316L1186.64 189.138V147.158L1189.13 146.322C1190.13 145.987 1190.96 146.489 1191.29 147.325L1199.27 165.054L1190.63 168.901C1189.8 169.235 1189.3 170.071 1189.63 171.075L1206.26 214.895C1206.92 216.735 1209.75 218.909 1213.91 217.236L1243.84 205.863C1244.5 205.529 1245 205.027 1245 203.522C1245 202.184 1244.33 201.18 1243.34 200.846Z" stroke="black" stroke-width="6" mask="url(#path-2-outside-1_4_3)"/>
</svg>
