<svg xmlns="http://www.w3.org/2000/svg"
     fill="none"
     viewBox="0 0 640 640">
    <path fill="red"
          stroke="#000"
          stroke-width="10"
          d="M266.14 44C260.84 70.85 270.74 99.74 300.24 130.52C311.44 123.23 331.84 119.58 350.24 122.36C313 92.5 283.74 75.23 266.14 44ZM106.53 50.24C120.9 96.7 158.43 152.42 206.94 191.92C170.85 189.62 127.27 176.72 96.1 166.62C121.06 201.82 160.27 219.52 199.44 232.92C174.47 250.62 143 263.5 96 271.62C150.64 290.82 203.54 280.52 227.34 272.32C209.44 307.22 126.62 338.52 105.03 349.32C158.29 353.52 226.74 338.32 272.04 316.42C282.04 341.02 270.44 369.62 261.94 394.22C260.04 398.72 258.14 403.12 256.24 407.52C261.34 404.02 266.34 400.52 271.14 396.92C294.74 380.72 318.94 365.02 330.64 338.12C356.74 369.32 393.34 400.22 437.64 423.52C455.04 445.62 465.94 472.52 471.84 497.32C480.14 478.22 485.64 457.12 481.54 437.02C506.04 433.42 517.14 407.32 517.04 382.62C504.44 388.82 501.94 388.92 485.84 390.82C485.84 380.72 486.44 378.32 482.84 362.12C472.54 370.52 461.84 373.32 452.04 373.92C454.14 366.32 455.04 354.42 455.74 346.62C442.74 353.72 436.54 356.32 425.64 357.42C425.24 346.52 425.54 337.42 421.54 327.02C391.94 346.02 372.94 328.52 353.54 305.72C373.34 288.72 449.94 283.92 448.64 312.82C462.64 305.52 467.44 301.62 472.24 296.92C481.34 305.42 485.64 317.82 487.34 328.32C496.64 318.92 497.64 317.82 504.44 304.52C510.14 314.62 513.24 321.52 515.14 335.12C523.64 328.92 530.54 322.02 534.94 313.72C542.44 329.22 543.24 329.72 547.34 346.72C565.14 333.62 569.14 315.52 570.14 299.12C572.14 266.12 569.84 190.92 539.14 156.22C540.84 192.52 526.04 226.22 505.34 236.92C492.74 241.82 408.84 162.32 367.74 143.62C344.24 133.42 319.64 150.72 299.94 152.92C224.34 129.82 160.91 94.56 106.53 50.24ZM373.44 176.42C386.74 197.32 405.64 213.32 433.54 231.42C414.14 234.32 367.74 224.72 355.84 207.42C350.34 199.52 362.94 186.12 373.44 176.42ZM257.94 342.72C243.54 348.92 228.74 353.62 214.14 357.02C211.74 360.62 209.54 364.12 207.44 367.52C222.24 372.82 238.94 374.52 251.54 370.32C254.84 360.52 257.04 351.02 257.94 342.72ZM189.94 361.82L179.74 363.32C147.93 399.92 117.84 466.52 131.5 515.22L167.63 580.12V515.22C156.51 477.52 151.1 428.12 189.94 361.82ZM198.44 383.32C192.54 394.72 188.04 405.42 184.64 415.42C197.54 422.12 213.74 424.32 229.44 423.62C234.04 413.12 239.24 401.82 244.04 390.32C228.64 392.12 212.64 388.92 198.44 383.32ZM309.84 389.92C297.84 400.42 284.64 410.22 270.94 419.52C277.94 453.52 304.34 482.92 344.84 515.22V541.12C354.747 525.551 360.571 515.564 371.84 493.62C312.84 451.12 310.84 408.62 309.84 389.92ZM179.84 433.12C177.34 444.92 176.54 455.82 176.84 466.02C214.14 480.22 239.34 479.52 274.34 470.12C267.14 459.82 261.34 449.12 257.44 437.82C224.74 447.22 202.04 443.52 179.84 433.12ZM286.44 485.52C248.34 496.42 217.64 498.72 178.94 485.82C180.74 496.22 183.44 505.92 186.44 515.22C186.44 515.22 229.44 519.62 256.24 528.62C283.04 537.62 316.54 596.12 316.54 596.12V515.22C305.24 505.42 295.14 495.62 286.44 485.52Z" />
</svg>