<svg width="256" height="256" viewBox="0 0 256 256" fill="none" xmlns="http://www.w3.org/2000/svg">
<path d="M84.2072 138.508L81.1499 143.883C77.2949 150.661 74.7481 156.905 73.1688 162.671L73.8573 160.585C75.0827 156.872 76.6985 152.919 78.806 148.725L80.0496 146.25L82.6157 147.292C87.2107 149.159 92.2315 150.156 96.9245 149.591L101.973 148.983L100.064 153.696C98.9405 156.467 97.7423 159.236 96.6032 161.868C96.0447 163.158 95.5004 164.416 94.9861 165.625L94.2477 167.361L92.3631 167.448C86.6049 167.712 80.399 166.903 75.291 164.17L73.0825 162.989C73.0367 163.159 72.9918 163.329 72.9478 163.498L76.3471 165.139C83.3859 168.535 90.4821 169.777 101.073 166.641L103.85 165.819L104.77 168.564C106.017 172.287 107.888 175.86 110.262 179.358L112.611 182.819L108.579 183.934C102.361 185.654 96.8286 186.631 91.105 186.467C85.3675 186.304 79.6094 185 72.9089 182.372L71.0856 181.657C71.0966 181.85 71.1085 182.042 71.1214 182.233L75.7058 183.807C88.3696 188.155 98.3438 187.425 111.123 183.66L113.01 183.103L114.272 184.613C117.168 188.075 120.558 191.468 124.397 194.897L125.398 195.792V197.134V226V237.57L84.2072 138.508ZM84.2072 138.508L78.0928 139.434L74.5594 139.969L73.4437 140.138L72.7159 141.001C66.9615 147.82 61.4214 157.35 57.9131 167.43C54.4201 177.466 52.8146 188.417 55.4031 197.923L55.4999 198.278L55.6797 198.599L68.1957 220.965L73.8136 231.004V219.5V197.134V196.713L73.6977 196.308C72.6502 192.651 71.7512 188.675 71.3009 184.331L71.7731 187.141C72.4272 191.034 73.4037 194.637 74.4668 198.031L75.0557 199.911L77.0151 200.118L84.2072 138.508ZM107.571 27.56L103.564 20.2366L101.993 28.4353C99.9183 39.2586 103.929 50.4941 114.555 61.9145L116.298 63.787L118.422 62.3627C121.518 60.2869 127.77 59.0148 133.611 59.9237L144.407 61.6037L135.983 54.6462C132.979 52.1658 130.234 50.0098 127.674 47.9995C124.52 45.5227 121.648 43.267 118.922 40.8984C114.154 36.7559 110.383 32.6996 107.571 27.56ZM51.5766 28.9287L43.887 22.4737L46.7745 32.0893C51.2063 46.8478 61.6783 63.9444 75.4406 77.6189C65.6124 75.8664 55.1678 72.6371 46.9844 69.9059L38.4792 67.0673L43.5636 74.4528C51.5309 86.0258 63.3528 92.5078 75.2385 97.1636C67.7958 101.569 58.4607 104.952 45.4744 107.263L34.4464 109.225L44.979 113.037C59.2839 118.215 73.2163 117.646 83.1092 115.773C82.5907 116.214 82.0448 116.657 81.4728 117.101C77.9733 119.821 73.728 122.416 69.3592 124.792C65.0003 127.163 60.5855 129.278 56.7675 131.052C55.6359 131.578 54.5429 132.08 53.5148 132.552C51.1386 133.643 49.1095 134.575 47.7541 135.273L38.4239 140.081L48.8852 140.93C66.701 142.377 89.0525 137.61 105.057 130.428C105.087 130.603 105.114 130.779 105.138 130.955L100.882 132.843C96.0749 134.975 91.1225 136.596 86.2256 137.77L85.0588 138.05L84.4069 139.057C83.5486 140.383 82.7666 141.665 82.0315 142.891L80.1698 145.996L83.5662 147.249C89.06 149.275 95.6009 150.075 100.855 148.271L102.268 147.785L102.733 146.365C103.927 142.712 104.744 139.112 105.082 135.899L105.321 133.628C105.327 135.502 105.097 137.462 104.694 139.498C103.942 143.295 102.652 147.086 101.358 150.885C101.128 151.561 100.898 152.237 100.671 152.913C100.03 154.475 99.3891 156.004 98.7427 157.546L94.6975 167.195L103.241 161.156C105.002 159.911 106.757 158.647 108.454 157.337C108.852 157.056 109.253 156.774 109.656 156.49C112.282 154.641 115.004 152.724 117.618 150.601C113.7 154.09 109.39 157.378 104.883 160.529L103.275 161.653L103.66 163.576C106.235 176.459 115.685 187.29 129.202 198.546V206.376V216.939L134.754 207.952C138.237 202.314 140.299 198.671 144.24 190.766L145.361 188.516L143.342 187.018C133.516 179.727 128.588 172.559 126.042 166.569C123.505 160.599 123.247 155.613 123.076 152.333L123.073 152.271L122.747 145.982L122.37 146.321C124.431 144.229 126.316 141.922 127.898 139.313C136.78 149.39 148.49 159.142 162.344 166.739C167.826 174.103 171.34 183.055 173.273 191.423L175.358 200.451L178.96 191.914C181.581 185.703 183.575 178.582 182.908 171.465C186.766 170.068 189.609 167.213 191.516 163.82C193.844 159.679 194.873 154.609 194.854 149.81L194.835 144.948L190.498 147.146C188.367 148.226 187.297 148.666 186.167 148.952C185.553 149.108 184.903 149.225 184.044 149.347C184.033 148.978 184.015 148.605 183.986 148.22C183.867 146.629 183.574 144.814 182.939 141.875L181.889 137.008L178.077 140.21C176.41 141.611 174.719 142.487 173.044 143.02C173.267 141.249 173.418 139.466 173.538 138.051C173.562 137.764 173.586 137.491 173.608 137.237L174.101 131.576L169.148 134.362C166.431 135.89 164.737 136.738 163.082 137.239C162.968 134.622 162.682 131.88 161.582 128.934L160.263 125.401L157.117 127.481C154.851 128.979 152.964 129.642 151.378 129.818C149.817 129.992 148.369 129.715 146.921 129.05C144.551 127.961 142.258 125.883 139.772 123.098C140.934 122.583 142.369 122.096 144.04 121.682C147.235 120.892 150.924 120.46 154.387 120.508C157.903 120.557 160.906 121.096 162.886 122.031C164.792 122.93 165.203 123.859 165.162 124.786L164.932 130.055L169.579 127.56C172.633 125.919 174.543 124.701 176.002 123.564C177.387 125.739 178.205 128.389 178.602 130.913L179.541 136.886L183.729 132.525L183.75 132.504C185.263 130.929 186.304 129.844 187.22 128.57C187.647 129.903 187.965 131.376 188.223 133.277L188.91 138.343L192.998 135.272C194.639 134.039 196.173 132.695 197.52 131.198C197.635 131.469 197.741 131.731 197.842 131.996C198.336 133.285 198.722 134.674 199.43 137.696L200.482 142.193L204.163 139.403C211.376 133.935 212.878 126.373 213.243 120.206L213.244 120.205C213.599 114.16 213.573 104.296 212.095 94.3222C210.634 84.4663 207.679 73.9473 201.786 67.0861L196.118 60.4877L196.513 69.1771C196.788 75.2358 195.722 81.041 193.792 85.7194C191.998 90.07 189.576 93.1779 187.068 94.7896C186.902 94.7238 186.69 94.6297 186.427 94.4981C185.392 93.9795 183.99 93.093 182.246 91.8598C178.776 89.4065 174.367 85.8805 169.549 82.0093C169.312 81.8188 169.074 81.6276 168.836 81.4357C164.258 77.7564 159.375 73.8326 154.767 70.4011C149.956 66.8193 145.263 63.6352 141.408 61.8286L141.383 61.8172L141.359 61.8063C136.286 59.5382 131.245 60.4235 127.045 61.6688C125.629 62.0886 124.177 62.5934 122.84 63.0585C122.231 63.2703 121.646 63.474 121.098 63.6575C119.506 64.1913 118.131 64.5943 116.905 64.7981C91.3902 56.6761 69.9694 44.3687 51.5766 28.9287ZM187.493 94.9244C187.493 94.9251 187.481 94.9237 187.455 94.918C187.48 94.9208 187.493 94.9237 187.493 94.9244ZM141.667 80.9562C144.685 85.0732 148.346 88.6922 152.785 92.2353C151.64 92.0066 150.47 91.7297 149.302 91.4041C146.763 90.6961 144.375 89.7943 142.428 88.752C140.477 87.7078 139.202 86.6467 138.55 85.7064C138.553 85.6691 138.56 85.6103 138.579 85.5244C138.666 85.1326 138.93 84.5147 139.486 83.6728C140.061 82.8018 140.819 81.8803 141.667 80.9562ZM138.55 85.759C138.55 85.7594 138.549 85.7547 138.549 85.7437C138.551 85.7532 138.551 85.7586 138.55 85.759ZM119.776 227.458L119.776 227.458L77.0152 200.118L77.0162 200.118L77.0226 200.119L77.0512 200.122L77.1704 200.135C77.2767 200.146 77.436 200.164 77.6432 200.188C78.0578 200.236 78.6637 200.309 79.4212 200.406C80.9373 200.6 83.0551 200.892 85.4568 201.282C90.3057 202.07 96.1408 203.233 100.529 204.751C102.191 205.326 104.263 206.835 106.562 209.148C108.803 211.404 111.022 214.177 113.004 216.919C114.978 219.651 116.677 222.295 117.884 224.259C118.486 225.239 118.963 226.046 119.288 226.605C119.45 226.884 119.574 227.101 119.657 227.246C119.698 227.319 119.729 227.374 119.749 227.409L119.771 227.448L119.776 227.457L119.776 227.458ZM71.8731 168.427C72.0439 167.455 72.2418 166.468 72.4688 165.467L72.1049 167.236C72.0227 167.636 71.9455 168.033 71.8731 168.427Z" fill="#FF0000" stroke="black" stroke-width="6"/>
</svg>
