<svg width="1280" height="320" viewBox="0 0 1280 320" fill="none" xmlns="http://www.w3.org/2000/svg">
<path d="M102.074 50C100.016 60.74 103.86 72.296 115.317 84.608C119.666 81.692 127.588 80.232 134.734 81.344C120.272 69.4 108.909 62.492 102.074 50ZM40.0893 52.496C45.6699 71.08 60.2447 93.368 79.0835 109.168C65.068 108.248 48.1437 103.088 36.0388 99.048C45.732 113.128 60.9592 120.208 76.1709 125.568C66.4738 132.648 54.2524 137.8 36 141.048C57.2194 148.728 77.7631 144.608 87.0058 141.328C80.0544 155.288 47.8913 167.808 39.5068 172.128C60.1903 173.808 86.7728 167.728 104.365 158.968C108.249 168.808 103.744 180.248 100.443 190.088C99.7049 191.888 98.967 193.648 98.2291 195.408C100.21 194.008 102.151 192.608 104.016 191.168C113.181 184.688 122.579 178.408 127.122 167.648C137.258 180.128 151.472 192.488 168.676 201.808C175.433 210.648 179.666 221.408 181.957 231.328C185.181 223.688 187.317 215.248 185.724 207.208C195.239 205.768 199.55 195.328 199.511 185.448C194.617 187.928 193.647 187.968 187.394 188.728C187.394 184.688 187.627 183.728 186.229 177.248C182.229 180.608 178.074 181.728 174.268 181.968C175.084 178.928 175.433 174.168 175.705 171.048C170.656 173.888 168.249 174.928 164.016 175.368C163.86 171.008 163.977 167.368 162.423 163.208C150.928 170.808 143.55 163.808 136.016 154.688C143.705 147.888 173.452 145.968 172.948 157.528C178.384 154.608 180.249 153.048 182.113 151.168C185.647 154.568 187.317 159.528 187.977 163.728C191.588 159.968 191.977 159.528 194.617 154.208C196.831 158.248 198.035 161.008 198.773 166.448C202.074 163.968 204.753 161.208 206.462 157.888C209.375 164.088 209.685 164.288 211.278 171.088C218.19 165.848 219.744 158.608 220.132 152.048C220.909 138.848 220.016 108.768 208.093 94.888C208.753 109.408 203.006 122.888 194.967 127.168C190.074 129.128 157.491 97.328 141.53 89.848C132.404 85.768 122.85 92.688 115.2 93.568C85.8408 84.328 61.2078 70.224 40.0893 52.496ZM143.744 102.968C148.909 111.328 156.249 117.728 167.084 124.968C159.55 126.128 141.53 122.288 136.909 115.368C134.773 112.208 139.666 106.848 143.744 102.968ZM98.8893 169.488C93.2971 171.968 87.5495 173.848 81.8796 175.208C80.9476 176.648 80.0932 178.048 79.2777 179.408C85.0252 181.528 91.5107 182.208 96.4039 180.528C97.6854 176.608 98.5398 172.808 98.8893 169.488ZM72.4816 177.128L68.5204 177.728C56.167 192.368 44.4816 219.008 49.7864 238.488L63.8175 263.5V238.488C59.499 223.408 57.3981 203.648 72.4816 177.128ZM75.7825 185.728C73.4913 190.288 71.7437 194.568 70.4233 198.568C75.433 201.248 81.7243 202.128 87.8214 201.848C89.6078 197.648 91.6272 193.128 93.4913 188.528C87.5107 189.248 81.2971 187.968 75.7825 185.728ZM119.045 188.368C114.384 192.568 109.258 196.488 103.938 200.208C106.656 213.808 116.909 225.568 132.637 238.488V248.848C136.484 242.621 138.746 238.626 143.122 229.848C120.21 212.848 119.433 195.848 119.045 188.368ZM68.5592 205.648C67.5883 210.368 67.2777 214.728 67.3942 218.808C81.8796 224.488 91.666 224.208 105.258 220.448C102.462 216.328 100.21 212.048 98.6951 207.528C85.9961 211.288 77.1806 209.808 68.5592 205.648ZM109.957 226.608C95.1612 230.968 83.2388 231.888 68.2097 226.728C68.9087 230.888 69.9573 234.768 71.1223 238.488C71.1223 238.488 87.8214 240.248 98.2291 243.848C108.637 247.448 121.647 270.848 121.647 270.848V238.488C117.258 234.568 113.336 230.648 109.957 226.608Z" fill="#FF0000" stroke="black" stroke-width="4"/>
<mask id="path-2-outside-1_4_3" maskUnits="userSpaceOnUse" x="212.118" y="75.2" width="1061" height="174" fill="black">
<rect fill="white" x="212.118" y="75.2" width="1061" height="174"/>
<path d="M300.673 224.607C298.682 224.341 294.435 223.875 287.932 223.211C281.428 222.546 275.92 222.214 271.408 222.214C267.161 222.214 262.516 222.48 257.472 223.011C252.429 223.676 234.711 227.334 233.118 227.6L242.318 213.44C248.291 212.377 258.667 210.515 260.658 208.256C262.648 205.863 263.644 201.875 263.644 196.291L263.843 116.131C263.843 111.877 263.378 109.019 262.449 107.557C261.52 106.095 259.729 105.364 257.074 105.364C255.614 105.364 254.221 105.43 252.894 105.563C251.566 105.696 250.704 105.762 250.306 105.762L238.718 93.9976L251.102 94.197C252.694 94.197 255.747 94.33 260.259 94.5958C264.772 94.7288 269.284 94.7952 273.797 94.7952C279.637 94.7952 285.609 94.7288 291.714 94.5958C297.952 94.33 302.265 94.1306 304.654 93.9976C317.661 93.9976 329.075 96.4569 338.896 101.376C348.717 106.294 356.282 113.273 361.591 122.313C367.032 131.22 369.753 141.655 369.753 153.619C369.753 167.046 366.767 179.143 360.795 189.91C354.822 200.678 346.527 209.186 335.91 215.434C325.425 221.549 313.679 224.607 300.673 224.607ZM292.311 106.959C289.79 106.959 288.064 107.291 287.135 107.956C286.339 108.488 285.874 109.684 285.742 111.545L285.543 116.73C283.817 157.94 282.955 183.995 282.955 194.896C282.955 199.415 283.552 202.872 284.746 205.264C285.941 207.524 288.064 209.12 291.117 210.05C294.169 210.981 298.615 211.446 304.455 211.446C317.594 211.446 327.747 206.86 334.914 197.687C342.214 188.515 345.864 175.62 345.864 159.003C345.864 141.721 341.351 128.76 332.326 120.119C323.301 111.346 309.963 106.959 292.311 106.959Z"/>
<path d="M444.85 224.607C438.081 224.607 432.175 219.821 427.132 210.25L412.002 182.333H400.057L399.659 200.878C399.659 204.6 399.924 207.259 400.455 208.854C400.986 210.449 401.981 211.512 403.441 212.044C405.034 212.576 407.688 212.908 411.404 213.041L412.002 213.839L410.21 222.812C408.352 222.679 405.1 222.546 400.455 222.413C395.81 222.413 391.43 222.413 387.316 222.413C383.467 222.413 379.552 222.48 375.57 222.613C371.721 222.878 369.199 223.078 368.005 223.211L369.399 213.44C374.044 212.775 377.163 211.645 378.755 210.05C380.348 208.455 381.144 205.397 381.144 200.878L381.343 139.661C381.343 136.603 380.945 134.543 380.149 133.479C379.353 132.416 377.959 131.884 375.968 131.884L370.195 132.084L369.399 131.087L370.792 122.313C372.252 122.313 374.973 122.379 378.954 122.512C382.936 122.645 386.851 122.712 390.7 122.712C394.947 122.712 399.393 122.645 404.038 122.512C408.816 122.246 412.134 122.047 413.992 121.914C425.804 121.914 434.962 124.24 441.465 128.893C447.969 133.413 451.22 139.794 451.22 148.036C451.22 154.151 449.229 159.801 445.248 164.985C441.399 170.037 435.825 174.291 428.525 177.747L443.854 200.878C447.04 205.663 450.026 209.12 452.813 211.247C455.733 213.241 459.051 214.238 462.767 214.238L463.762 215.633L462.568 223.011L444.85 224.607ZM415.585 171.167C425.672 167.311 430.715 160.598 430.715 151.027C430.715 145.045 428.592 140.591 424.344 137.667C420.097 134.742 413.528 133.28 404.636 133.28C403.574 133.28 402.844 133.546 402.446 134.078C402.048 134.476 401.849 135.407 401.849 136.869C400.919 152.157 400.455 163.058 400.455 169.571L415.585 171.167Z"/>
<path d="M504.581 222.413L505.178 213.839C510.753 213.307 514.336 212.709 515.929 212.044C517.654 211.38 518.517 210.05 518.517 208.056C518.517 206.328 518.119 204.4 517.322 202.273L513.54 189.312C510.753 189.179 505.51 189.113 497.813 189.113C493.698 189.113 488.323 189.445 481.687 190.11L476.909 202.872C476.246 205.53 475.914 207.192 475.914 207.857C475.914 209.851 476.511 211.247 477.706 212.044C479.033 212.842 481.223 213.241 484.275 213.241H491.641L492.437 214.238L491.243 223.211C489.783 223.078 486.598 222.878 481.687 222.613C476.776 222.347 472.131 222.214 467.752 222.214C463.372 222.214 459.39 222.28 455.807 222.413C452.223 222.546 449.834 222.613 448.64 222.613L449.834 213.041C452.489 212.642 454.612 211.712 456.205 210.25C457.93 208.654 459.523 205.996 460.983 202.273L491.044 123.509L512.146 120.917L513.938 121.515C515.531 127.364 518.915 139.395 524.091 157.607C529.267 175.686 533.912 190.575 538.027 202.273C539.221 206.129 540.747 208.854 542.605 210.449C544.596 211.911 547.649 212.842 551.763 213.241L552.36 214.238L551.166 222.613C549.839 222.613 547.251 222.546 543.402 222.413C539.686 222.28 535.837 222.214 531.855 222.214C526.281 222.214 520.773 222.347 515.332 222.613C510.023 223.011 506.638 223.277 505.178 223.41L504.581 222.413ZM497.613 178.146C502.79 178.146 507.169 177.946 510.753 177.547L500.202 141.655H498.211L485.271 178.146H497.613Z"/>
<path d="M588.916 224.008C573.919 224.008 562.041 219.688 553.281 211.047C544.654 202.273 540.341 190.376 540.341 175.354C540.341 164.187 542.664 154.55 547.309 146.441C552.087 138.199 558.855 131.884 567.615 127.497C576.374 123.11 586.66 120.917 598.472 120.917C602.719 120.917 607.165 121.183 611.81 121.715C616.588 122.246 620.636 122.845 623.954 123.509C627.405 124.174 629.595 124.573 630.524 124.706L631.718 126.301C631.586 126.966 631.187 128.561 630.524 131.087C629.993 133.612 629.396 136.936 628.732 141.057C628.069 145.178 627.604 149.565 627.339 154.217L613.801 155.214C613.801 154.683 613.868 153.686 614 152.223C614.133 150.628 614.199 148.833 614.199 146.839C614.199 142.32 612.673 139.129 609.621 137.268C606.568 135.407 601.525 134.476 594.491 134.476C583.873 134.476 575.843 137.467 570.402 143.45C564.96 149.299 562.24 158.139 562.24 169.97C562.24 182.998 564.96 193.101 570.402 200.279C575.843 207.458 583.342 211.047 592.898 211.047C596.083 211.047 599.003 210.715 601.657 210.05C604.312 209.385 606.369 208.721 607.829 208.056C609.289 207.391 610.218 206.926 610.616 206.66V191.107C610.616 187.916 610.085 185.856 609.023 184.925C608.094 183.862 606.037 183.33 602.852 183.33H593.495L592.898 182.333L594.491 171.964C596.481 171.964 598.273 172.031 599.866 172.164L616.588 172.363C619.906 172.363 623.158 172.297 626.343 172.164C629.529 171.898 631.586 171.698 632.515 171.565L633.51 177.149C630.988 178.877 629.329 181.336 628.533 184.527C627.737 187.717 627.339 193.633 627.339 202.273C627.339 207.99 627.67 212.509 628.334 215.833L627.14 217.627C626.343 218.026 624.286 218.757 620.968 219.821C617.65 220.751 613.138 221.682 607.431 222.613C601.856 223.543 595.685 224.008 588.916 224.008Z"/>
<path d="M680.602 224.008C671.179 224.008 662.95 222.014 655.916 218.026C648.882 214.038 643.44 208.388 639.591 201.077C635.875 193.766 634.017 185.191 634.017 175.354C634.017 164.719 636.273 155.281 640.786 147.039C645.431 138.797 651.802 132.416 659.897 127.896C667.993 123.243 677.284 120.917 687.769 120.917C702.235 120.917 713.715 125.237 722.209 133.878C730.703 142.519 734.95 154.284 734.95 169.173C734.95 179.807 732.628 189.312 727.983 197.687C723.337 205.929 716.901 212.377 708.672 217.029C700.443 221.682 691.087 224.008 680.602 224.008ZM684.981 212.044C693.476 212.044 700.244 208.92 705.288 202.672C710.331 196.424 712.853 187.85 712.853 176.949C712.853 163.523 710.198 153.087 704.889 145.643C699.581 138.199 692.281 134.476 682.991 134.476C674.629 134.476 667.993 137.6 663.083 143.848C658.305 149.963 655.916 158.471 655.916 169.372C655.916 182.798 658.504 193.3 663.68 200.878C668.856 208.322 675.957 212.044 684.981 212.044Z"/>
<path d="M814.005 138.664C814.005 136.271 813.541 134.609 812.612 133.679C811.815 132.615 810.488 132.084 808.63 132.084H802.857L802.459 131.087L803.653 122.113C805.113 122.246 807.701 122.379 811.417 122.512C815.266 122.645 819.115 122.712 822.964 122.712C826.149 122.712 829.732 122.579 833.714 122.313C837.696 122.047 840.284 121.848 841.478 121.715L840.682 131.286C836.833 131.818 834.112 132.815 832.52 134.277C830.927 135.739 830.064 138.066 829.931 141.256L827.742 224.806L814.403 226.8C802.989 209.917 791.443 193.5 779.763 177.547C768.217 161.595 762.444 153.752 762.444 154.018H761.05L760.851 206.062C760.851 208.721 761.249 210.582 762.045 211.645C762.842 212.576 764.235 213.041 766.226 213.041L773.592 212.842L774.587 213.44L772.796 222.812C771.336 222.679 768.681 222.546 764.832 222.413C760.984 222.28 757.002 222.214 752.888 222.214C749.57 222.214 745.92 222.347 741.938 222.613C738.09 223.011 735.568 223.277 734.373 223.41L735.568 213.839C738.886 213.44 741.275 212.509 742.735 211.047C744.327 209.585 745.19 207.259 745.323 204.068L747.513 141.057C747.513 137.733 746.584 135.473 744.726 134.277C742.867 132.948 739.284 131.951 733.975 131.286L732.781 130.09L734.174 121.914C735.369 122.047 737.824 122.246 741.54 122.512C745.256 122.645 748.574 122.712 751.494 122.712C754.812 122.712 757.798 122.645 760.453 122.512C763.107 122.379 764.899 122.246 765.828 122.113C775.384 136.603 784.94 150.429 794.495 163.589C804.051 176.75 810.223 185.191 813.01 188.913H814.403L814.005 138.664Z"/>
<path d="M840.321 213.639C846.293 212.443 850.275 210.715 852.266 208.455C854.256 206.062 855.252 202.074 855.252 196.491L855.451 115.932C855.451 111.678 854.92 108.82 853.858 107.358C852.929 105.895 851.005 105.164 848.085 105.164L841.715 105.563L840.918 104.367L825.918 93.2L854.655 94.5958C857.309 94.7288 860.826 94.7952 865.206 94.7952C869.188 94.7952 877.549 94.2635 890.29 93.2L889.494 103.968C885.645 104.632 882.924 105.43 881.331 106.361C879.739 107.158 878.611 108.554 877.947 110.548C877.416 112.542 877.018 115.799 876.753 120.319L875.558 151.027L905.619 151.226C913.051 151.226 922.01 150.695 932.495 149.631L932.694 115.932C932.694 111.678 932.163 108.82 931.101 107.358C930.172 105.895 928.248 105.164 925.328 105.164C923.47 105.164 921.346 105.297 918.957 105.563L918.161 104.367L907.518 91.2L925.129 94.5958L941.652 94.7952C945.634 94.7952 954.393 94.2635 967.931 93.2L966.936 103.968C962.025 104.632 958.707 105.696 956.981 107.158C955.389 108.621 954.526 111.279 954.393 115.134C953.597 128.295 952.934 142.984 952.403 159.202C952.004 175.421 951.805 188.448 951.805 198.285C951.805 203.47 952.403 206.993 953.597 208.854C954.792 210.715 957.048 211.645 960.366 211.645C961.826 211.645 964.547 211.446 968.528 211.047L969.324 212.044L967.533 222.812C965.807 222.812 964.414 222.745 963.352 222.613C953.796 222.347 946.364 222.214 941.055 222.214L905.619 226.8L917.763 211.845C921.877 211.712 924.93 211.114 926.921 210.05C929.044 208.987 930.504 207.126 931.3 204.467C932.097 201.675 932.495 197.488 932.495 191.904V163.789L906.017 163.589C902.965 163.589 898.651 163.789 893.077 164.187C887.503 164.586 881.53 165.052 875.16 165.583L874.563 198.086C874.563 203.536 875.093 207.192 876.155 209.053C877.217 210.781 879.407 211.645 882.725 211.645C883.919 211.645 886.706 211.446 891.086 211.047L891.683 212.044L889.892 222.812C887.768 222.679 884.782 222.546 880.933 222.413C877.084 222.28 873.368 222.214 869.785 222.214C864.343 222.214 858.238 222.413 851.469 222.812C844.701 223.344 831.524 230.268 829.931 230.8L840.321 213.639Z"/>
<path d="M1014.57 222.413L1015.16 213.839C1020.74 213.307 1024.32 212.709 1025.91 212.044C1027.64 211.38 1028.5 210.05 1028.5 208.056C1028.5 206.328 1028.1 204.4 1027.31 202.273L1023.53 189.312C1020.74 189.179 1015.5 189.113 1007.8 189.113C1003.68 189.113 998.309 189.445 991.673 190.11L986.895 202.872C986.231 205.53 985.899 207.192 985.899 207.857C985.899 209.851 986.497 211.247 987.691 212.044C989.018 212.842 991.208 213.241 994.261 213.241H1001.63L1002.42 214.238L1001.23 223.211C999.769 223.078 996.583 222.878 991.673 222.613C986.762 222.347 982.117 222.214 977.737 222.214C973.357 222.214 969.376 222.28 965.792 222.413C962.209 222.546 959.82 222.613 958.625 222.613L959.82 213.041C962.474 212.642 964.598 211.712 966.19 210.25C967.916 208.654 969.508 205.996 970.968 202.273L1001.03 123.509L1022.13 120.917L1023.92 121.515C1025.52 127.364 1028.9 139.395 1034.08 157.607C1039.25 175.686 1043.9 190.575 1048.01 202.273C1049.21 206.129 1050.73 208.854 1052.59 210.449C1054.58 211.911 1057.63 212.842 1061.75 213.241L1062.35 214.238L1061.15 222.613C1059.82 222.613 1057.24 222.546 1053.39 222.413C1049.67 222.28 1045.82 222.214 1041.84 222.214C1036.27 222.214 1030.76 222.347 1025.32 222.613C1020.01 223.011 1016.62 223.277 1015.16 223.41L1014.57 222.413ZM1007.6 178.146C1012.78 178.146 1017.15 177.946 1020.74 177.547L1010.19 141.655H1008.2L995.256 178.146H1007.6Z"/>
<path d="M1099.1 224.008C1084.1 224.008 1072.23 219.688 1063.47 211.047C1054.71 202.273 1050.33 190.376 1050.33 175.354C1050.33 164.453 1052.72 154.948 1057.49 146.839C1062.27 138.597 1068.97 132.217 1077.6 127.697C1086.23 123.177 1096.25 120.917 1107.66 120.917C1111.78 120.917 1116.09 121.183 1120.6 121.715C1125.11 122.246 1128.9 122.845 1131.95 123.509C1135.13 124.174 1137.19 124.573 1138.12 124.706L1138.92 126.301C1138.78 126.966 1138.45 128.627 1137.92 131.286C1137.39 133.812 1136.79 137.202 1136.13 141.456C1135.47 145.709 1135 150.229 1134.74 155.015L1121 155.813C1121 155.414 1121.07 154.483 1121.2 153.021C1121.33 151.559 1121.4 149.83 1121.4 147.836C1121.4 143.317 1119.74 139.993 1116.42 137.866C1113.24 135.606 1108.32 134.476 1101.69 134.476C1092.4 134.476 1085.23 137.534 1080.19 143.649C1075.14 149.631 1072.62 158.405 1072.62 169.97C1072.62 182.865 1075.28 192.968 1080.59 200.279C1086.03 207.458 1093.53 211.047 1103.08 211.047C1109.32 211.047 1114.23 209.319 1117.81 205.863C1121.53 202.273 1124.18 196.624 1125.78 188.913L1139.31 187.916C1139.05 189.645 1138.45 193.5 1137.52 199.482C1136.73 205.331 1136.13 210.848 1135.73 216.032L1134.34 217.827C1133.54 218.093 1131.55 218.757 1128.37 219.821C1125.31 220.751 1121.13 221.682 1115.82 222.613C1110.65 223.543 1105.07 224.008 1099.1 224.008Z"/>
<path d="M1153.11 140.259C1153.11 136.936 1152.71 134.742 1151.92 133.679C1151.12 132.482 1149.53 131.884 1147.14 131.884L1141.96 132.084L1141.17 130.887L1142.56 122.313L1163.26 122.712C1166.18 122.712 1170.03 122.579 1174.81 122.313C1179.72 121.914 1182.91 121.648 1184.37 121.515L1183.57 131.087C1179.46 131.751 1176.67 132.748 1175.21 134.078C1173.88 135.274 1173.15 137.268 1173.02 140.06L1171.43 202.273C1171.29 206.527 1171.69 209.385 1172.62 210.848C1173.55 212.31 1175.34 213.041 1178 213.041C1179.59 213.041 1180.98 212.975 1182.18 212.842C1183.37 212.709 1184.17 212.576 1184.57 212.443L1185.16 213.44L1183.77 222.613C1182.04 222.613 1178.92 222.546 1174.41 222.413C1170.03 222.28 1165.65 222.214 1161.27 222.214C1156.63 222.214 1152.25 222.28 1148.13 222.413C1144.02 222.546 1141.23 222.613 1139.77 222.613L1141.36 213.241C1146.14 212.576 1149.26 211.512 1150.72 210.05C1152.18 208.588 1152.91 205.597 1152.91 201.077L1153.11 140.259ZM1201.09 144.048C1204.14 141.256 1205.67 138.73 1205.67 136.47C1205.67 135.008 1204.94 133.945 1203.48 133.28C1202.02 132.482 1199.7 131.951 1196.51 131.685L1195.91 130.688L1197.31 121.715C1198.77 121.848 1201.69 122.047 1206.07 122.313C1210.58 122.579 1214.23 122.712 1217.02 122.712C1220.6 122.712 1224.12 122.645 1227.57 122.512C1231.15 122.379 1233.6 122.246 1234.93 122.113L1244.72 118.8L1234.53 131.884C1231.35 132.948 1228.3 134.676 1225.38 137.069C1222.59 139.329 1218.81 143.117 1214.03 148.435L1194.12 168.574L1217.61 200.279C1221.06 205.065 1224.18 208.521 1226.97 210.648C1229.89 212.642 1233.21 213.706 1236.92 213.839L1244.72 223.41L1236.72 222.613C1235.13 222.745 1232.41 223.011 1228.56 223.41C1224.85 223.942 1221.73 224.274 1219.2 224.407C1212.83 224.407 1206.8 220.087 1201.09 211.446L1175.21 173.161L1175.41 169.97L1201.09 144.048Z"/>
</mask>
<path d="M300.673 224.607C298.682 224.341 294.435 223.875 287.932 223.211C281.428 222.546 275.92 222.214 271.408 222.214C267.161 222.214 262.516 222.48 257.472 223.011C252.429 223.676 234.711 227.334 233.118 227.6L242.318 213.44C248.291 212.377 258.667 210.515 260.658 208.256C262.648 205.863 263.644 201.875 263.644 196.291L263.843 116.131C263.843 111.877 263.378 109.019 262.449 107.557C261.52 106.095 259.729 105.364 257.074 105.364C255.614 105.364 254.221 105.43 252.894 105.563C251.566 105.696 250.704 105.762 250.306 105.762L238.718 93.9976L251.102 94.197C252.694 94.197 255.747 94.33 260.259 94.5958C264.772 94.7288 269.284 94.7952 273.797 94.7952C279.637 94.7952 285.609 94.7288 291.714 94.5958C297.952 94.33 302.265 94.1306 304.654 93.9976C317.661 93.9976 329.075 96.4569 338.896 101.376C348.717 106.294 356.282 113.273 361.591 122.313C367.032 131.22 369.753 141.655 369.753 153.619C369.753 167.046 366.767 179.143 360.795 189.91C354.822 200.678 346.527 209.186 335.91 215.434C325.425 221.549 313.679 224.607 300.673 224.607ZM292.311 106.959C289.79 106.959 288.064 107.291 287.135 107.956C286.339 108.488 285.874 109.684 285.742 111.545L285.543 116.73C283.817 157.94 282.955 183.995 282.955 194.896C282.955 199.415 283.552 202.872 284.746 205.264C285.941 207.524 288.064 209.12 291.117 210.05C294.169 210.981 298.615 211.446 304.455 211.446C317.594 211.446 327.747 206.86 334.914 197.687C342.214 188.515 345.864 175.62 345.864 159.003C345.864 141.721 341.351 128.76 332.326 120.119C323.301 111.346 309.963 106.959 292.311 106.959Z" fill="white"/>
<path d="M444.85 224.607C438.081 224.607 432.175 219.821 427.132 210.25L412.002 182.333H400.057L399.659 200.878C399.659 204.6 399.924 207.259 400.455 208.854C400.986 210.449 401.981 211.512 403.441 212.044C405.034 212.576 407.688 212.908 411.404 213.041L412.002 213.839L410.21 222.812C408.352 222.679 405.1 222.546 400.455 222.413C395.81 222.413 391.43 222.413 387.316 222.413C383.467 222.413 379.552 222.48 375.57 222.613C371.721 222.878 369.199 223.078 368.005 223.211L369.399 213.44C374.044 212.775 377.163 211.645 378.755 210.05C380.348 208.455 381.144 205.397 381.144 200.878L381.343 139.661C381.343 136.603 380.945 134.543 380.149 133.479C379.353 132.416 377.959 131.884 375.968 131.884L370.195 132.084L369.399 131.087L370.792 122.313C372.252 122.313 374.973 122.379 378.954 122.512C382.936 122.645 386.851 122.712 390.7 122.712C394.947 122.712 399.393 122.645 404.038 122.512C408.816 122.246 412.134 122.047 413.992 121.914C425.804 121.914 434.962 124.24 441.465 128.893C447.969 133.413 451.22 139.794 451.22 148.036C451.22 154.151 449.229 159.801 445.248 164.985C441.399 170.037 435.825 174.291 428.525 177.747L443.854 200.878C447.04 205.663 450.026 209.12 452.813 211.247C455.733 213.241 459.051 214.238 462.767 214.238L463.762 215.633L462.568 223.011L444.85 224.607ZM415.585 171.167C425.672 167.311 430.715 160.598 430.715 151.027C430.715 145.045 428.592 140.591 424.344 137.667C420.097 134.742 413.528 133.28 404.636 133.28C403.574 133.28 402.844 133.546 402.446 134.078C402.048 134.476 401.849 135.407 401.849 136.869C400.919 152.157 400.455 163.058 400.455 169.571L415.585 171.167Z" fill="white"/>
<path d="M504.581 222.413L505.178 213.839C510.753 213.307 514.336 212.709 515.929 212.044C517.654 211.38 518.517 210.05 518.517 208.056C518.517 206.328 518.119 204.4 517.322 202.273L513.54 189.312C510.753 189.179 505.51 189.113 497.813 189.113C493.698 189.113 488.323 189.445 481.687 190.11L476.909 202.872C476.246 205.53 475.914 207.192 475.914 207.857C475.914 209.851 476.511 211.247 477.706 212.044C479.033 212.842 481.223 213.241 484.275 213.241H491.641L492.437 214.238L491.243 223.211C489.783 223.078 486.598 222.878 481.687 222.613C476.776 222.347 472.131 222.214 467.752 222.214C463.372 222.214 459.39 222.28 455.807 222.413C452.223 222.546 449.834 222.613 448.64 222.613L449.834 213.041C452.489 212.642 454.612 211.712 456.205 210.25C457.93 208.654 459.523 205.996 460.983 202.273L491.044 123.509L512.146 120.917L513.938 121.515C515.531 127.364 518.915 139.395 524.091 157.607C529.267 175.686 533.912 190.575 538.027 202.273C539.221 206.129 540.747 208.854 542.605 210.449C544.596 211.911 547.649 212.842 551.763 213.241L552.36 214.238L551.166 222.613C549.839 222.613 547.251 222.546 543.402 222.413C539.686 222.28 535.837 222.214 531.855 222.214C526.281 222.214 520.773 222.347 515.332 222.613C510.023 223.011 506.638 223.277 505.178 223.41L504.581 222.413ZM497.613 178.146C502.79 178.146 507.169 177.946 510.753 177.547L500.202 141.655H498.211L485.271 178.146H497.613Z" fill="white"/>
<path d="M588.916 224.008C573.919 224.008 562.041 219.688 553.281 211.047C544.654 202.273 540.341 190.376 540.341 175.354C540.341 164.187 542.664 154.55 547.309 146.441C552.087 138.199 558.855 131.884 567.615 127.497C576.374 123.11 586.66 120.917 598.472 120.917C602.719 120.917 607.165 121.183 611.81 121.715C616.588 122.246 620.636 122.845 623.954 123.509C627.405 124.174 629.595 124.573 630.524 124.706L631.718 126.301C631.586 126.966 631.187 128.561 630.524 131.087C629.993 133.612 629.396 136.936 628.732 141.057C628.069 145.178 627.604 149.565 627.339 154.217L613.801 155.214C613.801 154.683 613.868 153.686 614 152.223C614.133 150.628 614.199 148.833 614.199 146.839C614.199 142.32 612.673 139.129 609.621 137.268C606.568 135.407 601.525 134.476 594.491 134.476C583.873 134.476 575.843 137.467 570.402 143.45C564.96 149.299 562.24 158.139 562.24 169.97C562.24 182.998 564.96 193.101 570.402 200.279C575.843 207.458 583.342 211.047 592.898 211.047C596.083 211.047 599.003 210.715 601.657 210.05C604.312 209.385 606.369 208.721 607.829 208.056C609.289 207.391 610.218 206.926 610.616 206.66V191.107C610.616 187.916 610.085 185.856 609.023 184.925C608.094 183.862 606.037 183.33 602.852 183.33H593.495L592.898 182.333L594.491 171.964C596.481 171.964 598.273 172.031 599.866 172.164L616.588 172.363C619.906 172.363 623.158 172.297 626.343 172.164C629.529 171.898 631.586 171.698 632.515 171.565L633.51 177.149C630.988 178.877 629.329 181.336 628.533 184.527C627.737 187.717 627.339 193.633 627.339 202.273C627.339 207.99 627.67 212.509 628.334 215.833L627.14 217.627C626.343 218.026 624.286 218.757 620.968 219.821C617.65 220.751 613.138 221.682 607.431 222.613C601.856 223.543 595.685 224.008 588.916 224.008Z" fill="white"/>
<path d="M680.602 224.008C671.179 224.008 662.95 222.014 655.916 218.026C648.882 214.038 643.44 208.388 639.591 201.077C635.875 193.766 634.017 185.191 634.017 175.354C634.017 164.719 636.273 155.281 640.786 147.039C645.431 138.797 651.802 132.416 659.897 127.896C667.993 123.243 677.284 120.917 687.769 120.917C702.235 120.917 713.715 125.237 722.209 133.878C730.703 142.519 734.95 154.284 734.95 169.173C734.95 179.807 732.628 189.312 727.983 197.687C723.337 205.929 716.901 212.377 708.672 217.029C700.443 221.682 691.087 224.008 680.602 224.008ZM684.981 212.044C693.476 212.044 700.244 208.92 705.288 202.672C710.331 196.424 712.853 187.85 712.853 176.949C712.853 163.523 710.198 153.087 704.889 145.643C699.581 138.199 692.281 134.476 682.991 134.476C674.629 134.476 667.993 137.6 663.083 143.848C658.305 149.963 655.916 158.471 655.916 169.372C655.916 182.798 658.504 193.3 663.68 200.878C668.856 208.322 675.957 212.044 684.981 212.044Z" fill="white"/>
<path d="M814.005 138.664C814.005 136.271 813.541 134.609 812.612 133.679C811.815 132.615 810.488 132.084 808.63 132.084H802.857L802.459 131.087L803.653 122.113C805.113 122.246 807.701 122.379 811.417 122.512C815.266 122.645 819.115 122.712 822.964 122.712C826.149 122.712 829.732 122.579 833.714 122.313C837.696 122.047 840.284 121.848 841.478 121.715L840.682 131.286C836.833 131.818 834.112 132.815 832.52 134.277C830.927 135.739 830.064 138.066 829.931 141.256L827.742 224.806L814.403 226.8C802.989 209.917 791.443 193.5 779.763 177.547C768.217 161.595 762.444 153.752 762.444 154.018H761.05L760.851 206.062C760.851 208.721 761.249 210.582 762.045 211.645C762.842 212.576 764.235 213.041 766.226 213.041L773.592 212.842L774.587 213.44L772.796 222.812C771.336 222.679 768.681 222.546 764.832 222.413C760.984 222.28 757.002 222.214 752.888 222.214C749.57 222.214 745.92 222.347 741.938 222.613C738.09 223.011 735.568 223.277 734.373 223.41L735.568 213.839C738.886 213.44 741.275 212.509 742.735 211.047C744.327 209.585 745.19 207.259 745.323 204.068L747.513 141.057C747.513 137.733 746.584 135.473 744.726 134.277C742.867 132.948 739.284 131.951 733.975 131.286L732.781 130.09L734.174 121.914C735.369 122.047 737.824 122.246 741.54 122.512C745.256 122.645 748.574 122.712 751.494 122.712C754.812 122.712 757.798 122.645 760.453 122.512C763.107 122.379 764.899 122.246 765.828 122.113C775.384 136.603 784.94 150.429 794.495 163.589C804.051 176.75 810.223 185.191 813.01 188.913H814.403L814.005 138.664Z" fill="white"/>
<path d="M840.321 213.639C846.293 212.443 850.275 210.715 852.266 208.455C854.256 206.062 855.252 202.074 855.252 196.491L855.451 115.932C855.451 111.678 854.92 108.82 853.858 107.358C852.929 105.895 851.005 105.164 848.085 105.164L841.715 105.563L840.918 104.367L825.918 93.2L854.655 94.5958C857.309 94.7288 860.826 94.7952 865.206 94.7952C869.188 94.7952 877.549 94.2635 890.29 93.2L889.494 103.968C885.645 104.632 882.924 105.43 881.331 106.361C879.739 107.158 878.611 108.554 877.947 110.548C877.416 112.542 877.018 115.799 876.753 120.319L875.558 151.027L905.619 151.226C913.051 151.226 922.01 150.695 932.495 149.631L932.694 115.932C932.694 111.678 932.163 108.82 931.101 107.358C930.172 105.895 928.248 105.164 925.328 105.164C923.47 105.164 921.346 105.297 918.957 105.563L918.161 104.367L907.518 91.2L925.129 94.5958L941.652 94.7952C945.634 94.7952 954.393 94.2635 967.931 93.2L966.936 103.968C962.025 104.632 958.707 105.696 956.981 107.158C955.389 108.621 954.526 111.279 954.393 115.134C953.597 128.295 952.934 142.984 952.403 159.202C952.004 175.421 951.805 188.448 951.805 198.285C951.805 203.47 952.403 206.993 953.597 208.854C954.792 210.715 957.048 211.645 960.366 211.645C961.826 211.645 964.547 211.446 968.528 211.047L969.324 212.044L967.533 222.812C965.807 222.812 964.414 222.745 963.352 222.613C953.796 222.347 946.364 222.214 941.055 222.214L905.619 226.8L917.763 211.845C921.877 211.712 924.93 211.114 926.921 210.05C929.044 208.987 930.504 207.126 931.3 204.467C932.097 201.675 932.495 197.488 932.495 191.904V163.789L906.017 163.589C902.965 163.589 898.651 163.789 893.077 164.187C887.503 164.586 881.53 165.052 875.16 165.583L874.563 198.086C874.563 203.536 875.093 207.192 876.155 209.053C877.217 210.781 879.407 211.645 882.725 211.645C883.919 211.645 886.706 211.446 891.086 211.047L891.683 212.044L889.892 222.812C887.768 222.679 884.782 222.546 880.933 222.413C877.084 222.28 873.368 222.214 869.785 222.214C864.343 222.214 858.238 222.413 851.469 222.812C844.701 223.344 831.524 230.268 829.931 230.8L840.321 213.639Z" fill="white"/>
<path d="M1014.57 222.413L1015.16 213.839C1020.74 213.307 1024.32 212.709 1025.91 212.044C1027.64 211.38 1028.5 210.05 1028.5 208.056C1028.5 206.328 1028.1 204.4 1027.31 202.273L1023.53 189.312C1020.74 189.179 1015.5 189.113 1007.8 189.113C1003.68 189.113 998.309 189.445 991.673 190.11L986.895 202.872C986.231 205.53 985.899 207.192 985.899 207.857C985.899 209.851 986.497 211.247 987.691 212.044C989.018 212.842 991.208 213.241 994.261 213.241H1001.63L1002.42 214.238L1001.23 223.211C999.769 223.078 996.583 222.878 991.673 222.613C986.762 222.347 982.117 222.214 977.737 222.214C973.357 222.214 969.376 222.28 965.792 222.413C962.209 222.546 959.82 222.613 958.625 222.613L959.82 213.041C962.474 212.642 964.598 211.712 966.19 210.25C967.916 208.654 969.508 205.996 970.968 202.273L1001.03 123.509L1022.13 120.917L1023.92 121.515C1025.52 127.364 1028.9 139.395 1034.08 157.607C1039.25 175.686 1043.9 190.575 1048.01 202.273C1049.21 206.129 1050.73 208.854 1052.59 210.449C1054.58 211.911 1057.63 212.842 1061.75 213.241L1062.35 214.238L1061.15 222.613C1059.82 222.613 1057.24 222.546 1053.39 222.413C1049.67 222.28 1045.82 222.214 1041.84 222.214C1036.27 222.214 1030.76 222.347 1025.32 222.613C1020.01 223.011 1016.62 223.277 1015.16 223.41L1014.57 222.413ZM1007.6 178.146C1012.78 178.146 1017.15 177.946 1020.74 177.547L1010.19 141.655H1008.2L995.256 178.146H1007.6Z" fill="white"/>
<path d="M1099.1 224.008C1084.1 224.008 1072.23 219.688 1063.47 211.047C1054.71 202.273 1050.33 190.376 1050.33 175.354C1050.33 164.453 1052.72 154.948 1057.49 146.839C1062.27 138.597 1068.97 132.217 1077.6 127.697C1086.23 123.177 1096.25 120.917 1107.66 120.917C1111.78 120.917 1116.09 121.183 1120.6 121.715C1125.11 122.246 1128.9 122.845 1131.95 123.509C1135.13 124.174 1137.19 124.573 1138.12 124.706L1138.92 126.301C1138.78 126.966 1138.45 128.627 1137.92 131.286C1137.39 133.812 1136.79 137.202 1136.13 141.456C1135.47 145.709 1135 150.229 1134.74 155.015L1121 155.813C1121 155.414 1121.07 154.483 1121.2 153.021C1121.33 151.559 1121.4 149.83 1121.4 147.836C1121.4 143.317 1119.74 139.993 1116.42 137.866C1113.24 135.606 1108.32 134.476 1101.69 134.476C1092.4 134.476 1085.23 137.534 1080.19 143.649C1075.14 149.631 1072.62 158.405 1072.62 169.97C1072.62 182.865 1075.28 192.968 1080.59 200.279C1086.03 207.458 1093.53 211.047 1103.08 211.047C1109.32 211.047 1114.23 209.319 1117.81 205.863C1121.53 202.273 1124.18 196.624 1125.78 188.913L1139.31 187.916C1139.05 189.645 1138.45 193.5 1137.52 199.482C1136.73 205.331 1136.13 210.848 1135.73 216.032L1134.34 217.827C1133.54 218.093 1131.55 218.757 1128.37 219.821C1125.31 220.751 1121.13 221.682 1115.82 222.613C1110.65 223.543 1105.07 224.008 1099.1 224.008Z" fill="white"/>
<path d="M1153.11 140.259C1153.11 136.936 1152.71 134.742 1151.92 133.679C1151.12 132.482 1149.53 131.884 1147.14 131.884L1141.96 132.084L1141.17 130.887L1142.56 122.313L1163.26 122.712C1166.18 122.712 1170.03 122.579 1174.81 122.313C1179.72 121.914 1182.91 121.648 1184.37 121.515L1183.57 131.087C1179.46 131.751 1176.67 132.748 1175.21 134.078C1173.88 135.274 1173.15 137.268 1173.02 140.06L1171.43 202.273C1171.29 206.527 1171.69 209.385 1172.62 210.848C1173.55 212.31 1175.34 213.041 1178 213.041C1179.59 213.041 1180.98 212.975 1182.18 212.842C1183.37 212.709 1184.17 212.576 1184.57 212.443L1185.16 213.44L1183.77 222.613C1182.04 222.613 1178.92 222.546 1174.41 222.413C1170.03 222.28 1165.65 222.214 1161.27 222.214C1156.63 222.214 1152.25 222.28 1148.13 222.413C1144.02 222.546 1141.23 222.613 1139.77 222.613L1141.36 213.241C1146.14 212.576 1149.26 211.512 1150.72 210.05C1152.18 208.588 1152.91 205.597 1152.91 201.077L1153.11 140.259ZM1201.09 144.048C1204.14 141.256 1205.67 138.73 1205.67 136.47C1205.67 135.008 1204.94 133.945 1203.48 133.28C1202.02 132.482 1199.7 131.951 1196.51 131.685L1195.91 130.688L1197.31 121.715C1198.77 121.848 1201.69 122.047 1206.07 122.313C1210.58 122.579 1214.23 122.712 1217.02 122.712C1220.6 122.712 1224.12 122.645 1227.57 122.512C1231.15 122.379 1233.6 122.246 1234.93 122.113L1244.72 118.8L1234.53 131.884C1231.35 132.948 1228.3 134.676 1225.38 137.069C1222.59 139.329 1218.81 143.117 1214.03 148.435L1194.12 168.574L1217.61 200.279C1221.06 205.065 1224.18 208.521 1226.97 210.648C1229.89 212.642 1233.21 213.706 1236.92 213.839L1244.72 223.41L1236.72 222.613C1235.13 222.745 1232.41 223.011 1228.56 223.41C1224.85 223.942 1221.73 224.274 1219.2 224.407C1212.83 224.407 1206.8 220.087 1201.09 211.446L1175.21 173.161L1175.41 169.97L1201.09 144.048Z" fill="white"/>
<path d="M300.673 224.607C298.682 224.341 294.435 223.875 287.932 223.211C281.428 222.546 275.92 222.214 271.408 222.214C267.161 222.214 262.516 222.48 257.472 223.011C252.429 223.676 234.711 227.334 233.118 227.6L242.318 213.44C248.291 212.377 258.667 210.515 260.658 208.256C262.648 205.863 263.644 201.875 263.644 196.291L263.843 116.131C263.843 111.877 263.378 109.019 262.449 107.557C261.52 106.095 259.729 105.364 257.074 105.364C255.614 105.364 254.221 105.43 252.894 105.563C251.566 105.696 250.704 105.762 250.306 105.762L238.718 93.9976L251.102 94.197C252.694 94.197 255.747 94.33 260.259 94.5958C264.772 94.7288 269.284 94.7952 273.797 94.7952C279.637 94.7952 285.609 94.7288 291.714 94.5958C297.952 94.33 302.265 94.1306 304.654 93.9976C317.661 93.9976 329.075 96.4569 338.896 101.376C348.717 106.294 356.282 113.273 361.591 122.313C367.032 131.22 369.753 141.655 369.753 153.619C369.753 167.046 366.767 179.143 360.795 189.91C354.822 200.678 346.527 209.186 335.91 215.434C325.425 221.549 313.679 224.607 300.673 224.607ZM292.311 106.959C289.79 106.959 288.064 107.291 287.135 107.956C286.339 108.488 285.874 109.684 285.742 111.545L285.543 116.73C283.817 157.94 282.955 183.995 282.955 194.896C282.955 199.415 283.552 202.872 284.746 205.264C285.941 207.524 288.064 209.12 291.117 210.05C294.169 210.981 298.615 211.446 304.455 211.446C317.594 211.446 327.747 206.86 334.914 197.687C342.214 188.515 345.864 175.62 345.864 159.003C345.864 141.721 341.351 128.76 332.326 120.119C323.301 111.346 309.963 106.959 292.311 106.959Z" stroke="black" stroke-width="20" mask="url(#path-2-outside-1_4_3)"/>
<path d="M444.85 224.607C438.081 224.607 432.175 219.821 427.132 210.25L412.002 182.333H400.057L399.659 200.878C399.659 204.6 399.924 207.259 400.455 208.854C400.986 210.449 401.981 211.512 403.441 212.044C405.034 212.576 407.688 212.908 411.404 213.041L412.002 213.839L410.21 222.812C408.352 222.679 405.1 222.546 400.455 222.413C395.81 222.413 391.43 222.413 387.316 222.413C383.467 222.413 379.552 222.48 375.57 222.613C371.721 222.878 369.199 223.078 368.005 223.211L369.399 213.44C374.044 212.775 377.163 211.645 378.755 210.05C380.348 208.455 381.144 205.397 381.144 200.878L381.343 139.661C381.343 136.603 380.945 134.543 380.149 133.479C379.353 132.416 377.959 131.884 375.968 131.884L370.195 132.084L369.399 131.087L370.792 122.313C372.252 122.313 374.973 122.379 378.954 122.512C382.936 122.645 386.851 122.712 390.7 122.712C394.947 122.712 399.393 122.645 404.038 122.512C408.816 122.246 412.134 122.047 413.992 121.914C425.804 121.914 434.962 124.24 441.465 128.893C447.969 133.413 451.22 139.794 451.22 148.036C451.22 154.151 449.229 159.801 445.248 164.985C441.399 170.037 435.825 174.291 428.525 177.747L443.854 200.878C447.04 205.663 450.026 209.12 452.813 211.247C455.733 213.241 459.051 214.238 462.767 214.238L463.762 215.633L462.568 223.011L444.85 224.607ZM415.585 171.167C425.672 167.311 430.715 160.598 430.715 151.027C430.715 145.045 428.592 140.591 424.344 137.667C420.097 134.742 413.528 133.28 404.636 133.28C403.574 133.28 402.844 133.546 402.446 134.078C402.048 134.476 401.849 135.407 401.849 136.869C400.919 152.157 400.455 163.058 400.455 169.571L415.585 171.167Z" stroke="black" stroke-width="20" mask="url(#path-2-outside-1_4_3)"/>
<path d="M504.581 222.413L505.178 213.839C510.753 213.307 514.336 212.709 515.929 212.044C517.654 211.38 518.517 210.05 518.517 208.056C518.517 206.328 518.119 204.4 517.322 202.273L513.54 189.312C510.753 189.179 505.51 189.113 497.813 189.113C493.698 189.113 488.323 189.445 481.687 190.11L476.909 202.872C476.246 205.53 475.914 207.192 475.914 207.857C475.914 209.851 476.511 211.247 477.706 212.044C479.033 212.842 481.223 213.241 484.275 213.241H491.641L492.437 214.238L491.243 223.211C489.783 223.078 486.598 222.878 481.687 222.613C476.776 222.347 472.131 222.214 467.752 222.214C463.372 222.214 459.39 222.28 455.807 222.413C452.223 222.546 449.834 222.613 448.64 222.613L449.834 213.041C452.489 212.642 454.612 211.712 456.205 210.25C457.93 208.654 459.523 205.996 460.983 202.273L491.044 123.509L512.146 120.917L513.938 121.515C515.531 127.364 518.915 139.395 524.091 157.607C529.267 175.686 533.912 190.575 538.027 202.273C539.221 206.129 540.747 208.854 542.605 210.449C544.596 211.911 547.649 212.842 551.763 213.241L552.36 214.238L551.166 222.613C549.839 222.613 547.251 222.546 543.402 222.413C539.686 222.28 535.837 222.214 531.855 222.214C526.281 222.214 520.773 222.347 515.332 222.613C510.023 223.011 506.638 223.277 505.178 223.41L504.581 222.413ZM497.613 178.146C502.79 178.146 507.169 177.946 510.753 177.547L500.202 141.655H498.211L485.271 178.146H497.613Z" stroke="black" stroke-width="20" mask="url(#path-2-outside-1_4_3)"/>
<path d="M588.916 224.008C573.919 224.008 562.041 219.688 553.281 211.047C544.654 202.273 540.341 190.376 540.341 175.354C540.341 164.187 542.664 154.55 547.309 146.441C552.087 138.199 558.855 131.884 567.615 127.497C576.374 123.11 586.66 120.917 598.472 120.917C602.719 120.917 607.165 121.183 611.81 121.715C616.588 122.246 620.636 122.845 623.954 123.509C627.405 124.174 629.595 124.573 630.524 124.706L631.718 126.301C631.586 126.966 631.187 128.561 630.524 131.087C629.993 133.612 629.396 136.936 628.732 141.057C628.069 145.178 627.604 149.565 627.339 154.217L613.801 155.214C613.801 154.683 613.868 153.686 614 152.223C614.133 150.628 614.199 148.833 614.199 146.839C614.199 142.32 612.673 139.129 609.621 137.268C606.568 135.407 601.525 134.476 594.491 134.476C583.873 134.476 575.843 137.467 570.402 143.45C564.96 149.299 562.24 158.139 562.24 169.97C562.24 182.998 564.96 193.101 570.402 200.279C575.843 207.458 583.342 211.047 592.898 211.047C596.083 211.047 599.003 210.715 601.657 210.05C604.312 209.385 606.369 208.721 607.829 208.056C609.289 207.391 610.218 206.926 610.616 206.66V191.107C610.616 187.916 610.085 185.856 609.023 184.925C608.094 183.862 606.037 183.33 602.852 183.33H593.495L592.898 182.333L594.491 171.964C596.481 171.964 598.273 172.031 599.866 172.164L616.588 172.363C619.906 172.363 623.158 172.297 626.343 172.164C629.529 171.898 631.586 171.698 632.515 171.565L633.51 177.149C630.988 178.877 629.329 181.336 628.533 184.527C627.737 187.717 627.339 193.633 627.339 202.273C627.339 207.99 627.67 212.509 628.334 215.833L627.14 217.627C626.343 218.026 624.286 218.757 620.968 219.821C617.65 220.751 613.138 221.682 607.431 222.613C601.856 223.543 595.685 224.008 588.916 224.008Z" stroke="black" stroke-width="20" mask="url(#path-2-outside-1_4_3)"/>
<path d="M680.602 224.008C671.179 224.008 662.95 222.014 655.916 218.026C648.882 214.038 643.44 208.388 639.591 201.077C635.875 193.766 634.017 185.191 634.017 175.354C634.017 164.719 636.273 155.281 640.786 147.039C645.431 138.797 651.802 132.416 659.897 127.896C667.993 123.243 677.284 120.917 687.769 120.917C702.235 120.917 713.715 125.237 722.209 133.878C730.703 142.519 734.95 154.284 734.95 169.173C734.95 179.807 732.628 189.312 727.983 197.687C723.337 205.929 716.901 212.377 708.672 217.029C700.443 221.682 691.087 224.008 680.602 224.008ZM684.981 212.044C693.476 212.044 700.244 208.92 705.288 202.672C710.331 196.424 712.853 187.85 712.853 176.949C712.853 163.523 710.198 153.087 704.889 145.643C699.581 138.199 692.281 134.476 682.991 134.476C674.629 134.476 667.993 137.6 663.083 143.848C658.305 149.963 655.916 158.471 655.916 169.372C655.916 182.798 658.504 193.3 663.68 200.878C668.856 208.322 675.957 212.044 684.981 212.044Z" stroke="black" stroke-width="20" mask="url(#path-2-outside-1_4_3)"/>
<path d="M814.005 138.664C814.005 136.271 813.541 134.609 812.612 133.679C811.815 132.615 810.488 132.084 808.63 132.084H802.857L802.459 131.087L803.653 122.113C805.113 122.246 807.701 122.379 811.417 122.512C815.266 122.645 819.115 122.712 822.964 122.712C826.149 122.712 829.732 122.579 833.714 122.313C837.696 122.047 840.284 121.848 841.478 121.715L840.682 131.286C836.833 131.818 834.112 132.815 832.52 134.277C830.927 135.739 830.064 138.066 829.931 141.256L827.742 224.806L814.403 226.8C802.989 209.917 791.443 193.5 779.763 177.547C768.217 161.595 762.444 153.752 762.444 154.018H761.05L760.851 206.062C760.851 208.721 761.249 210.582 762.045 211.645C762.842 212.576 764.235 213.041 766.226 213.041L773.592 212.842L774.587 213.44L772.796 222.812C771.336 222.679 768.681 222.546 764.832 222.413C760.984 222.28 757.002 222.214 752.888 222.214C749.57 222.214 745.92 222.347 741.938 222.613C738.09 223.011 735.568 223.277 734.373 223.41L735.568 213.839C738.886 213.44 741.275 212.509 742.735 211.047C744.327 209.585 745.19 207.259 745.323 204.068L747.513 141.057C747.513 137.733 746.584 135.473 744.726 134.277C742.867 132.948 739.284 131.951 733.975 131.286L732.781 130.09L734.174 121.914C735.369 122.047 737.824 122.246 741.54 122.512C745.256 122.645 748.574 122.712 751.494 122.712C754.812 122.712 757.798 122.645 760.453 122.512C763.107 122.379 764.899 122.246 765.828 122.113C775.384 136.603 784.94 150.429 794.495 163.589C804.051 176.75 810.223 185.191 813.01 188.913H814.403L814.005 138.664Z" stroke="black" stroke-width="20" mask="url(#path-2-outside-1_4_3)"/>
<path d="M840.321 213.639C846.293 212.443 850.275 210.715 852.266 208.455C854.256 206.062 855.252 202.074 855.252 196.491L855.451 115.932C855.451 111.678 854.92 108.82 853.858 107.358C852.929 105.895 851.005 105.164 848.085 105.164L841.715 105.563L840.918 104.367L825.918 93.2L854.655 94.5958C857.309 94.7288 860.826 94.7952 865.206 94.7952C869.188 94.7952 877.549 94.2635 890.29 93.2L889.494 103.968C885.645 104.632 882.924 105.43 881.331 106.361C879.739 107.158 878.611 108.554 877.947 110.548C877.416 112.542 877.018 115.799 876.753 120.319L875.558 151.027L905.619 151.226C913.051 151.226 922.01 150.695 932.495 149.631L932.694 115.932C932.694 111.678 932.163 108.82 931.101 107.358C930.172 105.895 928.248 105.164 925.328 105.164C923.47 105.164 921.346 105.297 918.957 105.563L918.161 104.367L907.518 91.2L925.129 94.5958L941.652 94.7952C945.634 94.7952 954.393 94.2635 967.931 93.2L966.936 103.968C962.025 104.632 958.707 105.696 956.981 107.158C955.389 108.621 954.526 111.279 954.393 115.134C953.597 128.295 952.934 142.984 952.403 159.202C952.004 175.421 951.805 188.448 951.805 198.285C951.805 203.47 952.403 206.993 953.597 208.854C954.792 210.715 957.048 211.645 960.366 211.645C961.826 211.645 964.547 211.446 968.528 211.047L969.324 212.044L967.533 222.812C965.807 222.812 964.414 222.745 963.352 222.613C953.796 222.347 946.364 222.214 941.055 222.214L905.619 226.8L917.763 211.845C921.877 211.712 924.93 211.114 926.921 210.05C929.044 208.987 930.504 207.126 931.3 204.467C932.097 201.675 932.495 197.488 932.495 191.904V163.789L906.017 163.589C902.965 163.589 898.651 163.789 893.077 164.187C887.503 164.586 881.53 165.052 875.16 165.583L874.563 198.086C874.563 203.536 875.093 207.192 876.155 209.053C877.217 210.781 879.407 211.645 882.725 211.645C883.919 211.645 886.706 211.446 891.086 211.047L891.683 212.044L889.892 222.812C887.768 222.679 884.782 222.546 880.933 222.413C877.084 222.28 873.368 222.214 869.785 222.214C864.343 222.214 858.238 222.413 851.469 222.812C844.701 223.344 831.524 230.268 829.931 230.8L840.321 213.639Z" stroke="black" stroke-width="20" mask="url(#path-2-outside-1_4_3)"/>
<path d="M1014.57 222.413L1015.16 213.839C1020.74 213.307 1024.32 212.709 1025.91 212.044C1027.64 211.38 1028.5 210.05 1028.5 208.056C1028.5 206.328 1028.1 204.4 1027.31 202.273L1023.53 189.312C1020.74 189.179 1015.5 189.113 1007.8 189.113C1003.68 189.113 998.309 189.445 991.673 190.11L986.895 202.872C986.231 205.53 985.899 207.192 985.899 207.857C985.899 209.851 986.497 211.247 987.691 212.044C989.018 212.842 991.208 213.241 994.261 213.241H1001.63L1002.42 214.238L1001.23 223.211C999.769 223.078 996.583 222.878 991.673 222.613C986.762 222.347 982.117 222.214 977.737 222.214C973.357 222.214 969.376 222.28 965.792 222.413C962.209 222.546 959.82 222.613 958.625 222.613L959.82 213.041C962.474 212.642 964.598 211.712 966.19 210.25C967.916 208.654 969.508 205.996 970.968 202.273L1001.03 123.509L1022.13 120.917L1023.92 121.515C1025.52 127.364 1028.9 139.395 1034.08 157.607C1039.25 175.686 1043.9 190.575 1048.01 202.273C1049.21 206.129 1050.73 208.854 1052.59 210.449C1054.58 211.911 1057.63 212.842 1061.75 213.241L1062.35 214.238L1061.15 222.613C1059.82 222.613 1057.24 222.546 1053.39 222.413C1049.67 222.28 1045.82 222.214 1041.84 222.214C1036.27 222.214 1030.76 222.347 1025.32 222.613C1020.01 223.011 1016.62 223.277 1015.16 223.41L1014.57 222.413ZM1007.6 178.146C1012.78 178.146 1017.15 177.946 1020.74 177.547L1010.19 141.655H1008.2L995.256 178.146H1007.6Z" stroke="black" stroke-width="20" mask="url(#path-2-outside-1_4_3)"/>
<path d="M1099.1 224.008C1084.1 224.008 1072.23 219.688 1063.47 211.047C1054.71 202.273 1050.33 190.376 1050.33 175.354C1050.33 164.453 1052.72 154.948 1057.49 146.839C1062.27 138.597 1068.97 132.217 1077.6 127.697C1086.23 123.177 1096.25 120.917 1107.66 120.917C1111.78 120.917 1116.09 121.183 1120.6 121.715C1125.11 122.246 1128.9 122.845 1131.95 123.509C1135.13 124.174 1137.19 124.573 1138.12 124.706L1138.92 126.301C1138.78 126.966 1138.45 128.627 1137.92 131.286C1137.39 133.812 1136.79 137.202 1136.13 141.456C1135.47 145.709 1135 150.229 1134.74 155.015L1121 155.813C1121 155.414 1121.07 154.483 1121.2 153.021C1121.33 151.559 1121.4 149.83 1121.4 147.836C1121.4 143.317 1119.74 139.993 1116.42 137.866C1113.24 135.606 1108.32 134.476 1101.69 134.476C1092.4 134.476 1085.23 137.534 1080.19 143.649C1075.14 149.631 1072.62 158.405 1072.62 169.97C1072.62 182.865 1075.28 192.968 1080.59 200.279C1086.03 207.458 1093.53 211.047 1103.08 211.047C1109.32 211.047 1114.23 209.319 1117.81 205.863C1121.53 202.273 1124.18 196.624 1125.78 188.913L1139.31 187.916C1139.05 189.645 1138.45 193.5 1137.52 199.482C1136.73 205.331 1136.13 210.848 1135.73 216.032L1134.34 217.827C1133.54 218.093 1131.55 218.757 1128.37 219.821C1125.31 220.751 1121.13 221.682 1115.82 222.613C1110.65 223.543 1105.07 224.008 1099.1 224.008Z" stroke="black" stroke-width="20" mask="url(#path-2-outside-1_4_3)"/>
<path d="M1153.11 140.259C1153.11 136.936 1152.71 134.742 1151.92 133.679C1151.12 132.482 1149.53 131.884 1147.14 131.884L1141.96 132.084L1141.17 130.887L1142.56 122.313L1163.26 122.712C1166.18 122.712 1170.03 122.579 1174.81 122.313C1179.72 121.914 1182.91 121.648 1184.37 121.515L1183.57 131.087C1179.46 131.751 1176.67 132.748 1175.21 134.078C1173.88 135.274 1173.15 137.268 1173.02 140.06L1171.43 202.273C1171.29 206.527 1171.69 209.385 1172.62 210.848C1173.55 212.31 1175.34 213.041 1178 213.041C1179.59 213.041 1180.98 212.975 1182.18 212.842C1183.37 212.709 1184.17 212.576 1184.57 212.443L1185.16 213.44L1183.77 222.613C1182.04 222.613 1178.92 222.546 1174.41 222.413C1170.03 222.28 1165.65 222.214 1161.27 222.214C1156.63 222.214 1152.25 222.28 1148.13 222.413C1144.02 222.546 1141.23 222.613 1139.77 222.613L1141.36 213.241C1146.14 212.576 1149.26 211.512 1150.72 210.05C1152.18 208.588 1152.91 205.597 1152.91 201.077L1153.11 140.259ZM1201.09 144.048C1204.14 141.256 1205.67 138.73 1205.67 136.47C1205.67 135.008 1204.94 133.945 1203.48 133.28C1202.02 132.482 1199.7 131.951 1196.51 131.685L1195.91 130.688L1197.31 121.715C1198.77 121.848 1201.69 122.047 1206.07 122.313C1210.58 122.579 1214.23 122.712 1217.02 122.712C1220.6 122.712 1224.12 122.645 1227.57 122.512C1231.15 122.379 1233.6 122.246 1234.93 122.113L1244.72 118.8L1234.53 131.884C1231.35 132.948 1228.3 134.676 1225.38 137.069C1222.59 139.329 1218.81 143.117 1214.03 148.435L1194.12 168.574L1217.61 200.279C1221.06 205.065 1224.18 208.521 1226.97 210.648C1229.89 212.642 1233.21 213.706 1236.92 213.839L1244.72 223.41L1236.72 222.613C1235.13 222.745 1232.41 223.011 1228.56 223.41C1224.85 223.942 1221.73 224.274 1219.2 224.407C1212.83 224.407 1206.8 220.087 1201.09 211.446L1175.21 173.161L1175.41 169.97L1201.09 144.048Z" stroke="black" stroke-width="20" mask="url(#path-2-outside-1_4_3)"/>
</svg>
