<svg width="1600" height="320" viewBox="0 0 1600 320" fill="none" xmlns="http://www.w3.org/2000/svg">
<g clip-path="url(#clip0_1_2)">
<path d="M129.194 22C126.621 35.425 131.427 49.87 145.748 65.26C151.184 61.615 161.087 59.79 170.019 61.18C151.942 46.25 137.738 37.615 129.194 22ZM51.7136 25.12C58.6893 48.35 76.9078 76.21 100.456 95.96C82.9369 94.81 61.7815 88.36 46.6505 83.31C58.767 100.91 77.801 109.76 96.8155 116.46C84.6942 125.31 69.4175 131.75 46.6019 135.81C73.1262 145.41 98.8058 140.26 110.359 136.16C101.67 153.61 61.466 169.26 50.9854 174.66C76.8398 176.76 110.068 169.16 132.058 158.21C136.913 170.51 131.282 184.81 127.155 197.11C126.233 199.36 125.311 201.56 124.388 203.76C126.864 202.01 129.291 200.26 131.621 198.46C143.078 190.36 154.825 182.51 160.505 169.06C173.175 184.66 190.942 200.11 212.447 211.76C220.893 222.81 226.184 236.26 229.049 248.66C233.078 239.11 235.748 228.56 233.757 218.51C245.65 216.71 251.039 203.66 250.99 191.31C244.874 194.41 243.66 194.46 235.845 195.41C235.845 190.36 236.136 189.16 234.388 181.06C229.388 185.26 224.194 186.66 219.437 186.96C220.456 183.16 220.893 177.21 221.233 173.31C214.922 176.86 211.913 178.16 206.621 178.71C206.427 173.26 206.573 168.71 204.631 163.51C190.262 173.01 181.039 164.26 171.621 152.86C181.233 144.36 218.417 141.96 217.786 156.41C224.583 152.76 226.913 150.81 229.243 148.46C233.66 152.71 235.748 158.91 236.573 164.16C241.087 159.46 241.573 158.91 244.874 152.26C247.641 157.31 249.146 160.76 250.068 167.56C254.194 164.46 257.544 161.01 259.68 156.86C263.32 164.61 263.709 164.86 265.699 173.36C274.34 166.81 276.282 157.76 276.767 149.56C277.738 133.06 276.621 95.46 261.718 78.11C262.544 96.26 255.359 113.11 245.311 118.46C239.194 120.91 198.466 81.16 178.515 71.81C167.107 66.71 155.165 75.36 145.602 76.46C108.903 64.91 78.1116 47.28 51.7136 25.12ZM181.282 88.21C187.738 98.66 196.913 106.66 210.456 115.71C201.039 117.16 178.515 112.36 172.738 103.71C170.068 99.76 176.184 93.06 181.282 88.21ZM125.214 171.36C118.223 174.46 111.039 176.81 103.951 178.51C102.786 180.31 101.718 182.06 100.699 183.76C107.883 186.41 115.99 187.26 122.107 185.16C123.709 180.26 124.777 175.51 125.214 171.36ZM92.2039 180.91L87.2524 181.66C71.8107 199.96 57.2039 233.26 63.8349 257.61L81.3738 290.06V257.61C75.9757 238.76 73.3495 214.06 92.2039 180.91ZM96.3301 191.66C93.466 197.36 91.2815 202.71 89.6311 207.71C95.8932 211.06 103.757 212.16 111.379 211.81C113.612 206.56 116.136 200.91 118.466 195.16C110.99 196.06 103.223 194.46 96.3301 191.66ZM150.408 194.96C144.583 200.21 138.175 205.11 131.524 209.76C134.922 226.76 147.738 241.46 167.398 257.61V270.56C172.207 262.776 175.034 257.782 180.505 246.81C151.864 225.56 150.893 204.31 150.408 194.96ZM87.301 216.56C86.0874 222.46 85.699 227.91 85.8446 233.01C103.951 240.11 116.184 239.76 133.175 235.06C129.68 229.91 126.864 224.56 124.971 218.91C109.097 223.61 98.0777 221.76 87.301 216.56ZM139.049 242.76C120.553 248.21 105.65 249.36 86.8641 242.91C87.7379 248.11 89.0485 252.96 90.5048 257.61C90.5048 257.61 111.379 259.81 124.388 264.31C137.398 268.81 153.66 298.06 153.66 298.06V257.61C148.175 252.71 143.272 247.81 139.049 242.76Z" fill="#FF0000" stroke="black" stroke-width="6"/>
<mask id="path-2-outside-1_1_2" maskUnits="userSpaceOnUse" x="273" y="51.5" width="1335" height="222" fill="black">
<rect fill="white" x="273" y="51.5" width="1335" height="222"/>
<path d="M387.443 240.258C384.954 239.926 379.645 239.344 371.516 238.513C363.387 237.683 356.503 237.267 350.862 237.267C345.553 237.267 339.747 237.6 333.442 238.264C327.138 239.095 304.991 243.668 303 244L314.5 226.3C321.965 224.971 334.936 222.644 337.424 219.819C339.913 216.828 341.157 211.843 341.157 204.864L341.406 104.664C341.406 99.3468 340.825 95.7741 339.664 93.9463C338.502 92.1184 336.263 91.2045 332.945 91.2045C331.12 91.2045 329.378 91.2876 327.719 91.4537C326.06 91.6199 324.982 91.703 324.484 91.703L310 76.997L325.479 77.2463C327.47 77.2463 331.286 77.4124 336.926 77.7448C342.567 77.9109 348.208 77.994 353.848 77.994C361.148 77.994 368.613 77.9109 376.245 77.7448C384.042 77.4124 389.434 77.1632 392.42 76.997C408.678 76.997 422.945 80.0711 435.222 86.2194C447.498 92.3677 456.955 101.092 463.591 112.391C470.393 123.524 473.793 136.569 473.793 151.524C473.793 168.307 470.061 183.428 462.595 196.888C455.13 210.348 444.761 220.983 431.489 228.793C418.383 236.436 403.701 240.258 387.443 240.258ZM376.991 93.1985C373.839 93.1985 371.682 93.6139 370.521 94.4448C369.526 95.1095 368.945 96.605 368.779 98.9313L368.53 105.412C366.374 156.924 365.295 189.494 365.295 203.119C365.295 208.769 366.042 213.09 367.535 216.081C369.028 218.905 371.682 220.9 375.498 222.063C379.314 223.226 384.871 223.807 392.171 223.807C408.595 223.807 421.286 218.075 430.245 206.609C439.369 195.143 443.932 179.025 443.932 158.254C443.932 136.652 438.291 120.45 427.01 109.649C415.729 98.6821 399.056 93.1985 376.991 93.1985Z"/>
<path d="M567.664 240.258C559.203 240.258 551.821 234.276 545.516 222.312L526.604 187.416H511.673L511.175 210.597C511.175 215.25 511.507 218.573 512.171 220.567C512.834 222.561 514.079 223.891 515.903 224.555C517.894 225.22 521.212 225.635 525.857 225.801L526.604 226.799L524.364 238.015C522.042 237.849 517.977 237.683 512.171 237.516C506.364 237.516 500.89 237.516 495.747 237.516C490.936 237.516 486.042 237.6 481.065 237.766C476.253 238.098 473.101 238.347 471.608 238.513L473.35 226.3C479.157 225.469 483.055 224.057 485.046 222.063C487.037 220.069 488.032 216.247 488.032 210.597L488.281 134.076C488.281 130.254 487.783 127.679 486.788 126.349C485.793 125.02 484.051 124.355 481.562 124.355L474.346 124.604L473.35 123.358L475.092 112.391C476.917 112.391 480.318 112.474 485.295 112.64C490.272 112.806 495.166 112.89 499.977 112.89C505.286 112.89 510.843 112.806 516.65 112.64C522.622 112.308 526.77 112.059 529.092 111.893C543.857 111.893 555.305 114.8 563.434 120.616C571.563 126.266 575.627 134.242 575.627 144.545C575.627 152.189 573.139 159.251 568.162 165.731C563.351 172.046 556.383 177.363 547.258 181.684L566.42 210.597C570.401 216.579 574.134 220.9 577.618 223.558C581.268 226.051 585.415 227.297 590.061 227.297L591.305 229.042L589.812 238.264L567.664 240.258ZM531.083 173.458C543.692 168.639 549.996 160.248 549.996 148.284C549.996 140.806 547.341 135.239 542.033 131.584C536.724 127.928 528.512 126.1 517.397 126.1C516.069 126.1 515.157 126.432 514.659 127.097C514.161 127.596 513.913 128.759 513.913 130.587C512.751 149.696 512.171 163.322 512.171 171.464L531.083 173.458Z"/>
<path d="M642.329 237.516L643.075 226.799C650.043 226.134 654.522 225.386 656.513 224.555C658.67 223.724 659.748 222.063 659.748 219.57C659.748 217.41 659.25 215.001 658.255 212.342L653.527 196.14C650.043 195.974 643.49 195.891 633.868 195.891C628.725 195.891 622.006 196.306 613.711 197.137L607.739 213.09C606.909 216.413 606.494 218.49 606.494 219.321C606.494 221.813 607.241 223.558 608.734 224.555C610.393 225.552 613.13 226.051 616.946 226.051H626.153L627.149 227.297L625.656 238.513C623.831 238.347 619.849 238.098 613.711 237.766C607.573 237.433 601.766 237.267 596.291 237.267C590.817 237.267 585.84 237.35 581.361 237.516C576.881 237.683 573.895 237.766 572.402 237.766L573.895 225.801C577.213 225.303 579.867 224.14 581.858 222.312C584.015 220.318 586.006 216.995 587.831 212.342L625.407 113.887L651.785 110.646L654.025 111.394C656.015 118.705 660.246 133.744 666.716 156.509C673.186 179.108 678.992 197.719 684.135 212.342C685.628 217.161 687.536 220.567 689.859 222.561C692.347 224.389 696.163 225.552 701.306 226.051L702.052 227.297L700.559 237.766C698.9 237.766 695.665 237.683 690.854 237.516C686.209 237.35 681.398 237.267 676.421 237.267C669.453 237.267 662.568 237.433 655.766 237.766C649.13 238.264 644.9 238.597 643.075 238.763L642.329 237.516ZM633.619 182.182C640.089 182.182 645.564 181.933 650.043 181.434L636.854 136.569H634.365L618.19 182.182H633.619Z"/>
<path d="M747.747 239.51C729.001 239.51 714.153 234.11 703.203 223.309C692.42 212.342 687.028 197.47 687.028 178.693C687.028 164.734 689.931 152.687 695.738 142.551C701.71 132.248 710.171 124.355 721.121 118.872C732.07 113.388 744.927 110.646 759.692 110.646C765.001 110.646 770.559 110.979 776.365 111.643C782.337 112.308 787.397 113.056 791.545 113.887C795.858 114.717 798.596 115.216 799.757 115.382L801.25 117.376C801.084 118.207 800.586 120.201 799.757 123.358C799.093 126.515 798.347 130.67 797.517 135.821C796.688 140.972 796.107 146.456 795.775 152.272L778.854 153.518C778.854 152.853 778.936 151.607 779.102 149.779C779.268 147.785 779.351 145.542 779.351 143.049C779.351 137.4 777.443 133.411 773.628 131.085C769.812 128.759 763.508 127.596 754.715 127.596C741.443 127.596 731.406 131.334 724.604 138.812C717.803 146.123 714.402 157.174 714.402 171.963C714.402 188.247 717.803 200.876 724.604 209.849C731.406 218.822 740.78 223.309 752.724 223.309C756.706 223.309 760.356 222.894 763.674 222.063C766.992 221.232 769.563 220.401 771.388 219.57C773.213 218.739 774.374 218.158 774.872 217.825V198.384C774.872 194.396 774.208 191.82 772.881 190.657C771.72 189.327 769.148 188.663 765.167 188.663H753.471L752.724 187.416L754.715 174.455C757.204 174.455 759.443 174.538 761.434 174.704L782.337 174.954C786.485 174.954 790.549 174.871 794.531 174.704C798.513 174.372 801.084 174.123 802.245 173.957L803.49 180.936C800.338 183.096 798.264 186.17 797.268 190.158C796.273 194.146 795.775 201.541 795.775 212.342C795.775 219.487 796.19 225.137 797.02 229.291L795.526 231.534C794.531 232.033 791.96 232.947 787.812 234.276C783.665 235.439 778.024 236.602 770.89 237.766C763.923 238.929 756.208 239.51 747.747 239.51Z"/>
<path d="M862.354 239.51C850.575 239.51 840.29 237.018 831.497 232.033C822.704 227.048 815.902 219.986 811.091 210.846C806.446 201.707 804.123 190.989 804.123 178.693C804.123 165.399 806.944 153.601 812.584 143.299C818.391 132.996 826.354 125.02 836.474 119.37C846.594 113.554 858.207 110.646 871.313 110.646C889.396 110.646 903.746 116.047 914.364 126.848C924.981 137.649 930.29 152.355 930.29 170.966C930.29 184.259 927.387 196.14 921.58 206.609C915.774 216.911 907.728 224.971 897.442 230.787C887.156 236.602 875.46 239.51 862.354 239.51ZM867.829 224.555C878.446 224.555 886.907 220.65 893.211 212.84C899.516 205.03 902.668 194.312 902.668 180.687C902.668 163.903 899.35 150.859 892.714 141.554C886.078 132.248 876.953 127.596 865.34 127.596C854.889 127.596 846.594 131.5 840.455 139.31C834.483 146.954 831.497 157.589 831.497 171.215C831.497 187.998 834.732 201.125 841.202 210.597C847.672 219.902 856.548 224.555 867.829 224.555Z"/>
<path d="M1029.11 132.83C1029.11 129.839 1028.53 127.762 1027.37 126.599C1026.37 125.269 1024.71 124.604 1022.39 124.604H1015.17L1014.68 123.358L1016.17 112.142C1017.99 112.308 1021.23 112.474 1025.87 112.64C1030.68 112.806 1035.5 112.89 1040.31 112.89C1044.29 112.89 1048.77 112.723 1053.74 112.391C1058.72 112.059 1061.96 111.809 1063.45 111.643L1062.45 123.607C1057.64 124.272 1054.24 125.518 1052.25 127.346C1050.26 129.174 1049.18 132.082 1049.02 136.07L1046.28 240.507L1029.61 243C1015.34 221.897 1000.91 201.375 986.306 181.434C971.873 161.494 964.656 151.69 964.656 152.022H962.915L962.666 217.078C962.666 220.401 963.163 222.727 964.159 224.057C965.154 225.22 966.896 225.801 969.385 225.801L978.592 225.552L979.836 226.3L977.597 238.015C975.772 237.849 972.454 237.683 967.643 237.516C962.832 237.35 957.855 237.267 952.712 237.267C948.564 237.267 944.002 237.433 939.025 237.766C934.214 238.264 931.062 238.597 929.569 238.763L931.062 226.799C935.209 226.3 938.195 225.137 940.02 223.309C942.011 221.481 943.09 218.573 943.255 214.585L945.993 135.821C945.993 131.667 944.832 128.842 942.509 127.346C940.186 125.685 935.707 124.438 929.071 123.607L927.578 122.112L929.32 111.893C930.813 112.059 933.882 112.308 938.527 112.64C943.173 112.806 947.32 112.89 950.97 112.89C955.117 112.89 958.85 112.806 962.168 112.64C965.486 112.474 967.726 112.308 968.887 112.142C980.832 130.254 992.776 147.536 1004.72 163.987C1016.67 180.437 1024.38 190.989 1027.86 195.642H1029.61L1029.11 132.83Z"/>
<path d="M1062 226.549C1069.47 225.054 1074.45 222.894 1076.93 220.069C1079.42 217.078 1080.67 212.093 1080.67 205.113L1080.92 104.415C1080.92 99.0975 1080.25 95.5249 1078.92 93.697C1077.76 91.8692 1075.36 90.9552 1071.71 90.9552L1063.75 91.4537L1062.75 89.9582L1044 76L1079.92 77.7448C1083.24 77.9109 1087.63 77.994 1093.11 77.994C1098.09 77.994 1108.54 77.3293 1124.46 76L1123.47 89.4597C1118.66 90.2905 1115.26 91.2876 1113.27 92.4507C1111.28 93.4478 1109.87 95.1925 1109.04 97.6851C1108.37 100.178 1107.87 104.249 1107.54 109.899L1106.05 148.284L1143.63 148.533C1152.92 148.533 1164.11 147.868 1177.22 146.539L1177.47 104.415C1177.47 99.0975 1176.81 95.5249 1175.48 93.697C1174.32 91.8692 1171.91 90.9552 1168.26 90.9552C1165.94 90.9552 1163.28 91.1214 1160.3 91.4537L1159.3 89.9582L1146 73.5L1168.01 77.7448L1188.67 77.994C1193.64 77.994 1204.59 77.3293 1221.52 76L1220.27 89.4597C1214.13 90.2905 1209.99 91.6199 1207.83 93.4478C1205.84 95.2756 1204.76 98.599 1204.59 103.418C1203.6 119.869 1202.77 138.23 1202.11 158.503C1201.61 178.776 1201.36 195.06 1201.36 207.357C1201.36 213.837 1202.11 218.241 1203.6 220.567C1205.09 222.894 1207.91 224.057 1212.06 224.057C1213.88 224.057 1217.29 223.807 1222.26 223.309L1223.26 224.555L1221.02 238.015C1218.86 238.015 1217.12 237.932 1215.79 237.766C1203.85 237.433 1194.56 237.267 1187.92 237.267L1143.63 243L1158.81 224.306C1163.95 224.14 1167.76 223.392 1170.25 222.063C1172.91 220.733 1174.73 218.407 1175.73 215.084C1176.72 211.594 1177.22 206.36 1177.22 199.381V164.236L1144.12 163.987C1140.31 163.987 1134.92 164.236 1127.95 164.734C1120.98 165.233 1113.52 165.814 1105.55 166.479L1104.81 207.107C1104.81 213.92 1105.47 218.49 1106.8 220.816C1108.12 222.977 1110.86 224.057 1115.01 224.057C1116.5 224.057 1119.99 223.807 1125.46 223.309L1126.21 224.555L1123.97 238.015C1121.31 237.849 1117.58 237.683 1112.77 237.516C1107.96 237.35 1103.31 237.267 1098.83 237.267C1092.03 237.267 1084.4 237.516 1075.94 238.015C1067.48 238.68 1051.01 247.335 1049.02 248L1062 226.549Z"/>
<path d="M1279.81 237.516L1280.56 226.799C1287.52 226.134 1292 225.386 1293.99 224.555C1296.15 223.724 1297.23 222.063 1297.23 219.57C1297.23 217.41 1296.73 215.001 1295.74 212.342L1291.01 196.14C1287.52 195.974 1280.97 195.891 1271.35 195.891C1266.21 195.891 1259.49 196.306 1251.19 197.137L1245.22 213.09C1244.39 216.413 1243.98 218.49 1243.98 219.321C1243.98 221.813 1244.72 223.558 1246.22 224.555C1247.87 225.552 1250.61 226.051 1254.43 226.051H1263.64L1264.63 227.297L1263.14 238.513C1261.31 238.347 1257.33 238.098 1251.19 237.766C1245.05 237.433 1239.25 237.267 1233.77 237.267C1228.3 237.267 1223.32 237.35 1218.84 237.516C1214.36 237.683 1211.38 237.766 1209.88 237.766L1211.38 225.801C1214.7 225.303 1217.35 224.14 1219.34 222.312C1221.5 220.318 1223.49 216.995 1225.31 212.342L1262.89 113.887L1289.27 110.646L1291.51 111.394C1293.5 118.705 1297.73 133.744 1304.2 156.509C1310.67 179.108 1316.47 197.719 1321.62 212.342C1323.11 217.161 1325.02 220.567 1327.34 222.561C1329.83 224.389 1333.64 225.552 1338.79 226.051L1339.53 227.297L1338.04 237.766C1336.38 237.766 1333.15 237.683 1328.34 237.516C1323.69 237.35 1318.88 237.267 1313.9 237.267C1306.94 237.267 1300.05 237.433 1293.25 237.766C1286.61 238.264 1282.38 238.597 1280.56 238.763L1279.81 237.516ZM1271.1 182.182C1277.57 182.182 1283.05 181.933 1287.52 181.434L1274.34 136.569H1271.85L1255.67 182.182H1271.1Z"/>
<path d="M1385.48 239.51C1366.73 239.51 1351.88 234.11 1340.93 223.309C1329.98 212.342 1324.51 197.47 1324.51 178.693C1324.51 165.067 1327.5 153.186 1333.47 143.049C1339.44 132.747 1347.82 124.771 1358.6 119.121C1369.39 113.471 1381.91 110.646 1396.18 110.646C1401.32 110.646 1406.71 110.979 1412.35 111.643C1417.99 112.308 1422.72 113.056 1426.54 113.887C1430.52 114.717 1433.09 115.216 1434.25 115.382L1435.25 117.376C1435.08 118.207 1434.67 120.284 1434 123.607C1433.34 126.765 1432.59 131.002 1431.76 136.319C1430.93 141.637 1430.35 147.287 1430.02 153.269L1412.85 154.266C1412.85 153.767 1412.93 152.604 1413.1 150.776C1413.27 148.948 1413.35 146.788 1413.35 144.296C1413.35 138.646 1411.28 134.492 1407.13 131.833C1403.15 129.008 1397.01 127.596 1388.71 127.596C1377.1 127.596 1368.14 131.417 1361.84 139.061C1355.53 146.539 1352.38 157.506 1352.38 171.963C1352.38 188.081 1355.7 200.71 1362.34 209.849C1369.14 218.822 1378.51 223.309 1390.46 223.309C1398.25 223.309 1404.39 221.149 1408.87 216.828C1413.52 212.342 1416.83 205.28 1418.82 195.642L1435.75 194.396C1435.41 196.556 1434.67 201.375 1433.51 208.852C1432.51 216.164 1431.76 223.06 1431.27 229.54L1429.52 231.784C1428.53 232.116 1426.04 232.947 1422.06 234.276C1418.24 235.439 1413.02 236.602 1406.38 237.766C1399.91 238.929 1392.94 239.51 1385.48 239.51Z"/>
<path d="M1452.99 134.824C1452.99 130.67 1452.49 127.928 1451.5 126.599C1450.5 125.103 1448.51 124.355 1445.52 124.355L1439.05 124.604L1438.06 123.109L1439.8 112.391L1465.68 112.89C1469.33 112.89 1474.14 112.723 1480.11 112.391C1486.25 111.893 1490.23 111.56 1492.06 111.394L1491.06 123.358C1485.92 124.189 1482.44 125.435 1480.61 127.097C1478.95 128.593 1478.04 131.085 1477.88 134.575L1475.88 212.342C1475.72 217.659 1476.22 221.232 1477.38 223.06C1478.54 224.888 1480.78 225.801 1484.1 225.801C1486.09 225.801 1487.83 225.718 1489.32 225.552C1490.82 225.386 1491.81 225.22 1492.31 225.054L1493.05 226.3L1491.31 237.766C1489.16 237.766 1485.26 237.683 1479.62 237.516C1474.14 237.35 1468.67 237.267 1463.19 237.267C1457.39 237.267 1451.91 237.35 1446.77 237.516C1441.63 237.683 1438.14 237.766 1436.32 237.766L1438.31 226.051C1444.28 225.22 1448.18 223.891 1450 222.063C1451.83 220.235 1452.74 216.496 1452.74 210.846L1452.99 134.824ZM1512.96 139.56C1516.78 136.07 1518.69 132.913 1518.69 130.088C1518.69 128.26 1517.77 126.931 1515.95 126.1C1514.12 125.103 1511.22 124.438 1507.24 124.106L1506.49 122.86L1508.23 111.643C1510.06 111.809 1513.71 112.059 1519.18 112.391C1524.82 112.723 1529.39 112.89 1532.87 112.89C1537.35 112.89 1541.75 112.806 1546.06 112.64C1550.54 112.474 1553.61 112.308 1555.27 112.142L1567.5 108L1554.77 124.355C1550.79 125.685 1546.97 127.845 1543.32 130.836C1539.84 133.661 1535.11 138.397 1529.14 145.043L1504.25 170.218L1533.62 209.849C1537.93 215.831 1541.83 220.152 1545.31 222.81C1548.96 225.303 1553.11 226.632 1557.76 226.799L1567.5 238.763L1557.51 237.766C1555.52 237.932 1552.12 238.264 1547.3 238.763C1542.66 239.427 1538.76 239.843 1535.61 240.009C1527.64 240.009 1520.1 234.608 1512.96 223.807L1480.61 175.951L1480.86 171.963L1512.96 139.56Z"/>
</mask>
<path d="M387.443 240.258C384.954 239.926 379.645 239.344 371.516 238.513C363.387 237.683 356.503 237.267 350.862 237.267C345.553 237.267 339.747 237.6 333.442 238.264C327.138 239.095 304.991 243.668 303 244L314.5 226.3C321.965 224.971 334.936 222.644 337.424 219.819C339.913 216.828 341.157 211.843 341.157 204.864L341.406 104.664C341.406 99.3468 340.825 95.7741 339.664 93.9463C338.502 92.1184 336.263 91.2045 332.945 91.2045C331.12 91.2045 329.378 91.2876 327.719 91.4537C326.06 91.6199 324.982 91.703 324.484 91.703L310 76.997L325.479 77.2463C327.47 77.2463 331.286 77.4124 336.926 77.7448C342.567 77.9109 348.208 77.994 353.848 77.994C361.148 77.994 368.613 77.9109 376.245 77.7448C384.042 77.4124 389.434 77.1632 392.42 76.997C408.678 76.997 422.945 80.0711 435.222 86.2194C447.498 92.3677 456.955 101.092 463.591 112.391C470.393 123.524 473.793 136.569 473.793 151.524C473.793 168.307 470.061 183.428 462.595 196.888C455.13 210.348 444.761 220.983 431.489 228.793C418.383 236.436 403.701 240.258 387.443 240.258ZM376.991 93.1985C373.839 93.1985 371.682 93.6139 370.521 94.4448C369.526 95.1095 368.945 96.605 368.779 98.9313L368.53 105.412C366.374 156.924 365.295 189.494 365.295 203.119C365.295 208.769 366.042 213.09 367.535 216.081C369.028 218.905 371.682 220.9 375.498 222.063C379.314 223.226 384.871 223.807 392.171 223.807C408.595 223.807 421.286 218.075 430.245 206.609C439.369 195.143 443.932 179.025 443.932 158.254C443.932 136.652 438.291 120.45 427.01 109.649C415.729 98.6821 399.056 93.1985 376.991 93.1985Z" fill="white"/>
<path d="M567.664 240.258C559.203 240.258 551.821 234.276 545.516 222.312L526.604 187.416H511.673L511.175 210.597C511.175 215.25 511.507 218.573 512.171 220.567C512.834 222.561 514.079 223.891 515.903 224.555C517.894 225.22 521.212 225.635 525.857 225.801L526.604 226.799L524.364 238.015C522.042 237.849 517.977 237.683 512.171 237.516C506.364 237.516 500.89 237.516 495.747 237.516C490.936 237.516 486.042 237.6 481.065 237.766C476.253 238.098 473.101 238.347 471.608 238.513L473.35 226.3C479.157 225.469 483.055 224.057 485.046 222.063C487.037 220.069 488.032 216.247 488.032 210.597L488.281 134.076C488.281 130.254 487.783 127.679 486.788 126.349C485.793 125.02 484.051 124.355 481.562 124.355L474.346 124.604L473.35 123.358L475.092 112.391C476.917 112.391 480.318 112.474 485.295 112.64C490.272 112.806 495.166 112.89 499.977 112.89C505.286 112.89 510.843 112.806 516.65 112.64C522.622 112.308 526.77 112.059 529.092 111.893C543.857 111.893 555.305 114.8 563.434 120.616C571.563 126.266 575.627 134.242 575.627 144.545C575.627 152.189 573.139 159.251 568.162 165.731C563.351 172.046 556.383 177.363 547.258 181.684L566.42 210.597C570.401 216.579 574.134 220.9 577.618 223.558C581.268 226.051 585.415 227.297 590.061 227.297L591.305 229.042L589.812 238.264L567.664 240.258ZM531.083 173.458C543.692 168.639 549.996 160.248 549.996 148.284C549.996 140.806 547.341 135.239 542.033 131.584C536.724 127.928 528.512 126.1 517.397 126.1C516.069 126.1 515.157 126.432 514.659 127.097C514.161 127.596 513.913 128.759 513.913 130.587C512.751 149.696 512.171 163.322 512.171 171.464L531.083 173.458Z" fill="white"/>
<path d="M642.329 237.516L643.075 226.799C650.043 226.134 654.522 225.386 656.513 224.555C658.67 223.724 659.748 222.063 659.748 219.57C659.748 217.41 659.25 215.001 658.255 212.342L653.527 196.14C650.043 195.974 643.49 195.891 633.868 195.891C628.725 195.891 622.006 196.306 613.711 197.137L607.739 213.09C606.909 216.413 606.494 218.49 606.494 219.321C606.494 221.813 607.241 223.558 608.734 224.555C610.393 225.552 613.13 226.051 616.946 226.051H626.153L627.149 227.297L625.656 238.513C623.831 238.347 619.849 238.098 613.711 237.766C607.573 237.433 601.766 237.267 596.291 237.267C590.817 237.267 585.84 237.35 581.361 237.516C576.881 237.683 573.895 237.766 572.402 237.766L573.895 225.801C577.213 225.303 579.867 224.14 581.858 222.312C584.015 220.318 586.006 216.995 587.831 212.342L625.407 113.887L651.785 110.646L654.025 111.394C656.015 118.705 660.246 133.744 666.716 156.509C673.186 179.108 678.992 197.719 684.135 212.342C685.628 217.161 687.536 220.567 689.859 222.561C692.347 224.389 696.163 225.552 701.306 226.051L702.052 227.297L700.559 237.766C698.9 237.766 695.665 237.683 690.854 237.516C686.209 237.35 681.398 237.267 676.421 237.267C669.453 237.267 662.568 237.433 655.766 237.766C649.13 238.264 644.9 238.597 643.075 238.763L642.329 237.516ZM633.619 182.182C640.089 182.182 645.564 181.933 650.043 181.434L636.854 136.569H634.365L618.19 182.182H633.619Z" fill="white"/>
<path d="M747.747 239.51C729.001 239.51 714.153 234.11 703.203 223.309C692.42 212.342 687.028 197.47 687.028 178.693C687.028 164.734 689.931 152.687 695.738 142.551C701.71 132.248 710.171 124.355 721.121 118.872C732.07 113.388 744.927 110.646 759.692 110.646C765.001 110.646 770.559 110.979 776.365 111.643C782.337 112.308 787.397 113.056 791.545 113.887C795.858 114.717 798.596 115.216 799.757 115.382L801.25 117.376C801.084 118.207 800.586 120.201 799.757 123.358C799.093 126.515 798.347 130.67 797.517 135.821C796.688 140.972 796.107 146.456 795.775 152.272L778.854 153.518C778.854 152.853 778.936 151.607 779.102 149.779C779.268 147.785 779.351 145.542 779.351 143.049C779.351 137.4 777.443 133.411 773.628 131.085C769.812 128.759 763.508 127.596 754.715 127.596C741.443 127.596 731.406 131.334 724.604 138.812C717.803 146.123 714.402 157.174 714.402 171.963C714.402 188.247 717.803 200.876 724.604 209.849C731.406 218.822 740.78 223.309 752.724 223.309C756.706 223.309 760.356 222.894 763.674 222.063C766.992 221.232 769.563 220.401 771.388 219.57C773.213 218.739 774.374 218.158 774.872 217.825V198.384C774.872 194.396 774.208 191.82 772.881 190.657C771.72 189.327 769.148 188.663 765.167 188.663H753.471L752.724 187.416L754.715 174.455C757.204 174.455 759.443 174.538 761.434 174.704L782.337 174.954C786.485 174.954 790.549 174.871 794.531 174.704C798.513 174.372 801.084 174.123 802.245 173.957L803.49 180.936C800.338 183.096 798.264 186.17 797.268 190.158C796.273 194.146 795.775 201.541 795.775 212.342C795.775 219.487 796.19 225.137 797.02 229.291L795.526 231.534C794.531 232.033 791.96 232.947 787.812 234.276C783.665 235.439 778.024 236.602 770.89 237.766C763.923 238.929 756.208 239.51 747.747 239.51Z" fill="white"/>
<path d="M862.354 239.51C850.575 239.51 840.29 237.018 831.497 232.033C822.704 227.048 815.902 219.986 811.091 210.846C806.446 201.707 804.123 190.989 804.123 178.693C804.123 165.399 806.944 153.601 812.584 143.299C818.391 132.996 826.354 125.02 836.474 119.37C846.594 113.554 858.207 110.646 871.313 110.646C889.396 110.646 903.746 116.047 914.364 126.848C924.981 137.649 930.29 152.355 930.29 170.966C930.29 184.259 927.387 196.14 921.58 206.609C915.774 216.911 907.728 224.971 897.442 230.787C887.156 236.602 875.46 239.51 862.354 239.51ZM867.829 224.555C878.446 224.555 886.907 220.65 893.211 212.84C899.516 205.03 902.668 194.312 902.668 180.687C902.668 163.903 899.35 150.859 892.714 141.554C886.078 132.248 876.953 127.596 865.34 127.596C854.889 127.596 846.594 131.5 840.455 139.31C834.483 146.954 831.497 157.589 831.497 171.215C831.497 187.998 834.732 201.125 841.202 210.597C847.672 219.902 856.548 224.555 867.829 224.555Z" fill="white"/>
<path d="M1029.11 132.83C1029.11 129.839 1028.53 127.762 1027.37 126.599C1026.37 125.269 1024.71 124.604 1022.39 124.604H1015.17L1014.68 123.358L1016.17 112.142C1017.99 112.308 1021.23 112.474 1025.87 112.64C1030.68 112.806 1035.5 112.89 1040.31 112.89C1044.29 112.89 1048.77 112.723 1053.74 112.391C1058.72 112.059 1061.96 111.809 1063.45 111.643L1062.45 123.607C1057.64 124.272 1054.24 125.518 1052.25 127.346C1050.26 129.174 1049.18 132.082 1049.02 136.07L1046.28 240.507L1029.61 243C1015.34 221.897 1000.91 201.375 986.306 181.434C971.873 161.494 964.656 151.69 964.656 152.022H962.915L962.666 217.078C962.666 220.401 963.163 222.727 964.159 224.057C965.154 225.22 966.896 225.801 969.385 225.801L978.592 225.552L979.836 226.3L977.597 238.015C975.772 237.849 972.454 237.683 967.643 237.516C962.832 237.35 957.855 237.267 952.712 237.267C948.564 237.267 944.002 237.433 939.025 237.766C934.214 238.264 931.062 238.597 929.569 238.763L931.062 226.799C935.209 226.3 938.195 225.137 940.02 223.309C942.011 221.481 943.09 218.573 943.255 214.585L945.993 135.821C945.993 131.667 944.832 128.842 942.509 127.346C940.186 125.685 935.707 124.438 929.071 123.607L927.578 122.112L929.32 111.893C930.813 112.059 933.882 112.308 938.527 112.64C943.173 112.806 947.32 112.89 950.97 112.89C955.117 112.89 958.85 112.806 962.168 112.64C965.486 112.474 967.726 112.308 968.887 112.142C980.832 130.254 992.776 147.536 1004.72 163.987C1016.67 180.437 1024.38 190.989 1027.86 195.642H1029.61L1029.11 132.83Z" fill="white"/>
<path d="M1062 226.549C1069.47 225.054 1074.45 222.894 1076.93 220.069C1079.42 217.078 1080.67 212.093 1080.67 205.113L1080.92 104.415C1080.92 99.0975 1080.25 95.5249 1078.92 93.697C1077.76 91.8692 1075.36 90.9552 1071.71 90.9552L1063.75 91.4537L1062.75 89.9582L1044 76L1079.92 77.7448C1083.24 77.9109 1087.63 77.994 1093.11 77.994C1098.09 77.994 1108.54 77.3293 1124.46 76L1123.47 89.4597C1118.66 90.2905 1115.26 91.2876 1113.27 92.4507C1111.28 93.4478 1109.87 95.1925 1109.04 97.6851C1108.37 100.178 1107.87 104.249 1107.54 109.899L1106.05 148.284L1143.63 148.533C1152.92 148.533 1164.11 147.868 1177.22 146.539L1177.47 104.415C1177.47 99.0975 1176.81 95.5249 1175.48 93.697C1174.32 91.8692 1171.91 90.9552 1168.26 90.9552C1165.94 90.9552 1163.28 91.1214 1160.3 91.4537L1159.3 89.9582L1146 73.5L1168.01 77.7448L1188.67 77.994C1193.64 77.994 1204.59 77.3293 1221.52 76L1220.27 89.4597C1214.13 90.2905 1209.99 91.6199 1207.83 93.4478C1205.84 95.2756 1204.76 98.599 1204.59 103.418C1203.6 119.869 1202.77 138.23 1202.11 158.503C1201.61 178.776 1201.36 195.06 1201.36 207.357C1201.36 213.837 1202.11 218.241 1203.6 220.567C1205.09 222.894 1207.91 224.057 1212.06 224.057C1213.88 224.057 1217.29 223.807 1222.26 223.309L1223.26 224.555L1221.02 238.015C1218.86 238.015 1217.12 237.932 1215.79 237.766C1203.85 237.433 1194.56 237.267 1187.92 237.267L1143.63 243L1158.81 224.306C1163.95 224.14 1167.76 223.392 1170.25 222.063C1172.91 220.733 1174.73 218.407 1175.73 215.084C1176.72 211.594 1177.22 206.36 1177.22 199.381V164.236L1144.12 163.987C1140.31 163.987 1134.92 164.236 1127.95 164.734C1120.98 165.233 1113.52 165.814 1105.55 166.479L1104.81 207.107C1104.81 213.92 1105.47 218.49 1106.8 220.816C1108.12 222.977 1110.86 224.057 1115.01 224.057C1116.5 224.057 1119.99 223.807 1125.46 223.309L1126.21 224.555L1123.97 238.015C1121.31 237.849 1117.58 237.683 1112.77 237.516C1107.96 237.35 1103.31 237.267 1098.83 237.267C1092.03 237.267 1084.4 237.516 1075.94 238.015C1067.48 238.68 1051.01 247.335 1049.02 248L1062 226.549Z" fill="white"/>
<path d="M1279.81 237.516L1280.56 226.799C1287.52 226.134 1292 225.386 1293.99 224.555C1296.15 223.724 1297.23 222.063 1297.23 219.57C1297.23 217.41 1296.73 215.001 1295.74 212.342L1291.01 196.14C1287.52 195.974 1280.97 195.891 1271.35 195.891C1266.21 195.891 1259.49 196.306 1251.19 197.137L1245.22 213.09C1244.39 216.413 1243.98 218.49 1243.98 219.321C1243.98 221.813 1244.72 223.558 1246.22 224.555C1247.87 225.552 1250.61 226.051 1254.43 226.051H1263.64L1264.63 227.297L1263.14 238.513C1261.31 238.347 1257.33 238.098 1251.19 237.766C1245.05 237.433 1239.25 237.267 1233.77 237.267C1228.3 237.267 1223.32 237.35 1218.84 237.516C1214.36 237.683 1211.38 237.766 1209.88 237.766L1211.38 225.801C1214.7 225.303 1217.35 224.14 1219.34 222.312C1221.5 220.318 1223.49 216.995 1225.31 212.342L1262.89 113.887L1289.27 110.646L1291.51 111.394C1293.5 118.705 1297.73 133.744 1304.2 156.509C1310.67 179.108 1316.47 197.719 1321.62 212.342C1323.11 217.161 1325.02 220.567 1327.34 222.561C1329.83 224.389 1333.64 225.552 1338.79 226.051L1339.53 227.297L1338.04 237.766C1336.38 237.766 1333.15 237.683 1328.34 237.516C1323.69 237.35 1318.88 237.267 1313.9 237.267C1306.94 237.267 1300.05 237.433 1293.25 237.766C1286.61 238.264 1282.38 238.597 1280.56 238.763L1279.81 237.516ZM1271.1 182.182C1277.57 182.182 1283.05 181.933 1287.52 181.434L1274.34 136.569H1271.85L1255.67 182.182H1271.1Z" fill="white"/>
<path d="M1385.48 239.51C1366.73 239.51 1351.88 234.11 1340.93 223.309C1329.98 212.342 1324.51 197.47 1324.51 178.693C1324.51 165.067 1327.5 153.186 1333.47 143.049C1339.44 132.747 1347.82 124.771 1358.6 119.121C1369.39 113.471 1381.91 110.646 1396.18 110.646C1401.32 110.646 1406.71 110.979 1412.35 111.643C1417.99 112.308 1422.72 113.056 1426.54 113.887C1430.52 114.717 1433.09 115.216 1434.25 115.382L1435.25 117.376C1435.08 118.207 1434.67 120.284 1434 123.607C1433.34 126.765 1432.59 131.002 1431.76 136.319C1430.93 141.637 1430.35 147.287 1430.02 153.269L1412.85 154.266C1412.85 153.767 1412.93 152.604 1413.1 150.776C1413.27 148.948 1413.35 146.788 1413.35 144.296C1413.35 138.646 1411.28 134.492 1407.13 131.833C1403.15 129.008 1397.01 127.596 1388.71 127.596C1377.1 127.596 1368.14 131.417 1361.84 139.061C1355.53 146.539 1352.38 157.506 1352.38 171.963C1352.38 188.081 1355.7 200.71 1362.34 209.849C1369.14 218.822 1378.51 223.309 1390.46 223.309C1398.25 223.309 1404.39 221.149 1408.87 216.828C1413.52 212.342 1416.83 205.28 1418.82 195.642L1435.75 194.396C1435.41 196.556 1434.67 201.375 1433.51 208.852C1432.51 216.164 1431.76 223.06 1431.27 229.54L1429.52 231.784C1428.53 232.116 1426.04 232.947 1422.06 234.276C1418.24 235.439 1413.02 236.602 1406.38 237.766C1399.91 238.929 1392.94 239.51 1385.48 239.51Z" fill="white"/>
<path d="M1452.99 134.824C1452.99 130.67 1452.49 127.928 1451.5 126.599C1450.5 125.103 1448.51 124.355 1445.52 124.355L1439.05 124.604L1438.06 123.109L1439.8 112.391L1465.68 112.89C1469.33 112.89 1474.14 112.723 1480.11 112.391C1486.25 111.893 1490.23 111.56 1492.06 111.394L1491.06 123.358C1485.92 124.189 1482.44 125.435 1480.61 127.097C1478.95 128.593 1478.04 131.085 1477.88 134.575L1475.88 212.342C1475.72 217.659 1476.22 221.232 1477.38 223.06C1478.54 224.888 1480.78 225.801 1484.1 225.801C1486.09 225.801 1487.83 225.718 1489.32 225.552C1490.82 225.386 1491.81 225.22 1492.31 225.054L1493.05 226.3L1491.31 237.766C1489.16 237.766 1485.26 237.683 1479.62 237.516C1474.14 237.35 1468.67 237.267 1463.19 237.267C1457.39 237.267 1451.91 237.35 1446.77 237.516C1441.63 237.683 1438.14 237.766 1436.32 237.766L1438.31 226.051C1444.28 225.22 1448.18 223.891 1450 222.063C1451.83 220.235 1452.74 216.496 1452.74 210.846L1452.99 134.824ZM1512.96 139.56C1516.78 136.07 1518.69 132.913 1518.69 130.088C1518.69 128.26 1517.77 126.931 1515.95 126.1C1514.12 125.103 1511.22 124.438 1507.24 124.106L1506.49 122.86L1508.23 111.643C1510.06 111.809 1513.71 112.059 1519.18 112.391C1524.82 112.723 1529.39 112.89 1532.87 112.89C1537.35 112.89 1541.75 112.806 1546.06 112.64C1550.54 112.474 1553.61 112.308 1555.27 112.142L1567.5 108L1554.77 124.355C1550.79 125.685 1546.97 127.845 1543.32 130.836C1539.84 133.661 1535.11 138.397 1529.14 145.043L1504.25 170.218L1533.62 209.849C1537.93 215.831 1541.83 220.152 1545.31 222.81C1548.96 225.303 1553.11 226.632 1557.76 226.799L1567.5 238.763L1557.51 237.766C1555.52 237.932 1552.12 238.264 1547.3 238.763C1542.66 239.427 1538.76 239.843 1535.61 240.009C1527.64 240.009 1520.1 234.608 1512.96 223.807L1480.61 175.951L1480.86 171.963L1512.96 139.56Z" fill="white"/>
<path d="M387.443 240.258C384.954 239.926 379.645 239.344 371.516 238.513C363.387 237.683 356.503 237.267 350.862 237.267C345.553 237.267 339.747 237.6 333.442 238.264C327.138 239.095 304.991 243.668 303 244L314.5 226.3C321.965 224.971 334.936 222.644 337.424 219.819C339.913 216.828 341.157 211.843 341.157 204.864L341.406 104.664C341.406 99.3468 340.825 95.7741 339.664 93.9463C338.502 92.1184 336.263 91.2045 332.945 91.2045C331.12 91.2045 329.378 91.2876 327.719 91.4537C326.06 91.6199 324.982 91.703 324.484 91.703L310 76.997L325.479 77.2463C327.47 77.2463 331.286 77.4124 336.926 77.7448C342.567 77.9109 348.208 77.994 353.848 77.994C361.148 77.994 368.613 77.9109 376.245 77.7448C384.042 77.4124 389.434 77.1632 392.42 76.997C408.678 76.997 422.945 80.0711 435.222 86.2194C447.498 92.3677 456.955 101.092 463.591 112.391C470.393 123.524 473.793 136.569 473.793 151.524C473.793 168.307 470.061 183.428 462.595 196.888C455.13 210.348 444.761 220.983 431.489 228.793C418.383 236.436 403.701 240.258 387.443 240.258ZM376.991 93.1985C373.839 93.1985 371.682 93.6139 370.521 94.4448C369.526 95.1095 368.945 96.605 368.779 98.9313L368.53 105.412C366.374 156.924 365.295 189.494 365.295 203.119C365.295 208.769 366.042 213.09 367.535 216.081C369.028 218.905 371.682 220.9 375.498 222.063C379.314 223.226 384.871 223.807 392.171 223.807C408.595 223.807 421.286 218.075 430.245 206.609C439.369 195.143 443.932 179.025 443.932 158.254C443.932 136.652 438.291 120.45 427.01 109.649C415.729 98.6821 399.056 93.1985 376.991 93.1985Z" stroke="black" stroke-width="28" mask="url(#path-2-outside-1_1_2)"/>
<path d="M567.664 240.258C559.203 240.258 551.821 234.276 545.516 222.312L526.604 187.416H511.673L511.175 210.597C511.175 215.25 511.507 218.573 512.171 220.567C512.834 222.561 514.079 223.891 515.903 224.555C517.894 225.22 521.212 225.635 525.857 225.801L526.604 226.799L524.364 238.015C522.042 237.849 517.977 237.683 512.171 237.516C506.364 237.516 500.89 237.516 495.747 237.516C490.936 237.516 486.042 237.6 481.065 237.766C476.253 238.098 473.101 238.347 471.608 238.513L473.35 226.3C479.157 225.469 483.055 224.057 485.046 222.063C487.037 220.069 488.032 216.247 488.032 210.597L488.281 134.076C488.281 130.254 487.783 127.679 486.788 126.349C485.793 125.02 484.051 124.355 481.562 124.355L474.346 124.604L473.35 123.358L475.092 112.391C476.917 112.391 480.318 112.474 485.295 112.64C490.272 112.806 495.166 112.89 499.977 112.89C505.286 112.89 510.843 112.806 516.65 112.64C522.622 112.308 526.77 112.059 529.092 111.893C543.857 111.893 555.305 114.8 563.434 120.616C571.563 126.266 575.627 134.242 575.627 144.545C575.627 152.189 573.139 159.251 568.162 165.731C563.351 172.046 556.383 177.363 547.258 181.684L566.42 210.597C570.401 216.579 574.134 220.9 577.618 223.558C581.268 226.051 585.415 227.297 590.061 227.297L591.305 229.042L589.812 238.264L567.664 240.258ZM531.083 173.458C543.692 168.639 549.996 160.248 549.996 148.284C549.996 140.806 547.341 135.239 542.033 131.584C536.724 127.928 528.512 126.1 517.397 126.1C516.069 126.1 515.157 126.432 514.659 127.097C514.161 127.596 513.913 128.759 513.913 130.587C512.751 149.696 512.171 163.322 512.171 171.464L531.083 173.458Z" stroke="black" stroke-width="28" mask="url(#path-2-outside-1_1_2)"/>
<path d="M642.329 237.516L643.075 226.799C650.043 226.134 654.522 225.386 656.513 224.555C658.67 223.724 659.748 222.063 659.748 219.57C659.748 217.41 659.25 215.001 658.255 212.342L653.527 196.14C650.043 195.974 643.49 195.891 633.868 195.891C628.725 195.891 622.006 196.306 613.711 197.137L607.739 213.09C606.909 216.413 606.494 218.49 606.494 219.321C606.494 221.813 607.241 223.558 608.734 224.555C610.393 225.552 613.13 226.051 616.946 226.051H626.153L627.149 227.297L625.656 238.513C623.831 238.347 619.849 238.098 613.711 237.766C607.573 237.433 601.766 237.267 596.291 237.267C590.817 237.267 585.84 237.35 581.361 237.516C576.881 237.683 573.895 237.766 572.402 237.766L573.895 225.801C577.213 225.303 579.867 224.14 581.858 222.312C584.015 220.318 586.006 216.995 587.831 212.342L625.407 113.887L651.785 110.646L654.025 111.394C656.015 118.705 660.246 133.744 666.716 156.509C673.186 179.108 678.992 197.719 684.135 212.342C685.628 217.161 687.536 220.567 689.859 222.561C692.347 224.389 696.163 225.552 701.306 226.051L702.052 227.297L700.559 237.766C698.9 237.766 695.665 237.683 690.854 237.516C686.209 237.35 681.398 237.267 676.421 237.267C669.453 237.267 662.568 237.433 655.766 237.766C649.13 238.264 644.9 238.597 643.075 238.763L642.329 237.516ZM633.619 182.182C640.089 182.182 645.564 181.933 650.043 181.434L636.854 136.569H634.365L618.19 182.182H633.619Z" stroke="black" stroke-width="28" mask="url(#path-2-outside-1_1_2)"/>
<path d="M747.747 239.51C729.001 239.51 714.153 234.11 703.203 223.309C692.42 212.342 687.028 197.47 687.028 178.693C687.028 164.734 689.931 152.687 695.738 142.551C701.71 132.248 710.171 124.355 721.121 118.872C732.07 113.388 744.927 110.646 759.692 110.646C765.001 110.646 770.559 110.979 776.365 111.643C782.337 112.308 787.397 113.056 791.545 113.887C795.858 114.717 798.596 115.216 799.757 115.382L801.25 117.376C801.084 118.207 800.586 120.201 799.757 123.358C799.093 126.515 798.347 130.67 797.517 135.821C796.688 140.972 796.107 146.456 795.775 152.272L778.854 153.518C778.854 152.853 778.936 151.607 779.102 149.779C779.268 147.785 779.351 145.542 779.351 143.049C779.351 137.4 777.443 133.411 773.628 131.085C769.812 128.759 763.508 127.596 754.715 127.596C741.443 127.596 731.406 131.334 724.604 138.812C717.803 146.123 714.402 157.174 714.402 171.963C714.402 188.247 717.803 200.876 724.604 209.849C731.406 218.822 740.78 223.309 752.724 223.309C756.706 223.309 760.356 222.894 763.674 222.063C766.992 221.232 769.563 220.401 771.388 219.57C773.213 218.739 774.374 218.158 774.872 217.825V198.384C774.872 194.396 774.208 191.82 772.881 190.657C771.72 189.327 769.148 188.663 765.167 188.663H753.471L752.724 187.416L754.715 174.455C757.204 174.455 759.443 174.538 761.434 174.704L782.337 174.954C786.485 174.954 790.549 174.871 794.531 174.704C798.513 174.372 801.084 174.123 802.245 173.957L803.49 180.936C800.338 183.096 798.264 186.17 797.268 190.158C796.273 194.146 795.775 201.541 795.775 212.342C795.775 219.487 796.19 225.137 797.02 229.291L795.526 231.534C794.531 232.033 791.96 232.947 787.812 234.276C783.665 235.439 778.024 236.602 770.89 237.766C763.923 238.929 756.208 239.51 747.747 239.51Z" stroke="black" stroke-width="28" mask="url(#path-2-outside-1_1_2)"/>
<path d="M862.354 239.51C850.575 239.51 840.29 237.018 831.497 232.033C822.704 227.048 815.902 219.986 811.091 210.846C806.446 201.707 804.123 190.989 804.123 178.693C804.123 165.399 806.944 153.601 812.584 143.299C818.391 132.996 826.354 125.02 836.474 119.37C846.594 113.554 858.207 110.646 871.313 110.646C889.396 110.646 903.746 116.047 914.364 126.848C924.981 137.649 930.29 152.355 930.29 170.966C930.29 184.259 927.387 196.14 921.58 206.609C915.774 216.911 907.728 224.971 897.442 230.787C887.156 236.602 875.46 239.51 862.354 239.51ZM867.829 224.555C878.446 224.555 886.907 220.65 893.211 212.84C899.516 205.03 902.668 194.312 902.668 180.687C902.668 163.903 899.35 150.859 892.714 141.554C886.078 132.248 876.953 127.596 865.34 127.596C854.889 127.596 846.594 131.5 840.455 139.31C834.483 146.954 831.497 157.589 831.497 171.215C831.497 187.998 834.732 201.125 841.202 210.597C847.672 219.902 856.548 224.555 867.829 224.555Z" stroke="black" stroke-width="28" mask="url(#path-2-outside-1_1_2)"/>
<path d="M1029.11 132.83C1029.11 129.839 1028.53 127.762 1027.37 126.599C1026.37 125.269 1024.71 124.604 1022.39 124.604H1015.17L1014.68 123.358L1016.17 112.142C1017.99 112.308 1021.23 112.474 1025.87 112.64C1030.68 112.806 1035.5 112.89 1040.31 112.89C1044.29 112.89 1048.77 112.723 1053.74 112.391C1058.72 112.059 1061.96 111.809 1063.45 111.643L1062.45 123.607C1057.64 124.272 1054.24 125.518 1052.25 127.346C1050.26 129.174 1049.18 132.082 1049.02 136.07L1046.28 240.507L1029.61 243C1015.34 221.897 1000.91 201.375 986.306 181.434C971.873 161.494 964.656 151.69 964.656 152.022H962.915L962.666 217.078C962.666 220.401 963.163 222.727 964.159 224.057C965.154 225.22 966.896 225.801 969.385 225.801L978.592 225.552L979.836 226.3L977.597 238.015C975.772 237.849 972.454 237.683 967.643 237.516C962.832 237.35 957.855 237.267 952.712 237.267C948.564 237.267 944.002 237.433 939.025 237.766C934.214 238.264 931.062 238.597 929.569 238.763L931.062 226.799C935.209 226.3 938.195 225.137 940.02 223.309C942.011 221.481 943.09 218.573 943.255 214.585L945.993 135.821C945.993 131.667 944.832 128.842 942.509 127.346C940.186 125.685 935.707 124.438 929.071 123.607L927.578 122.112L929.32 111.893C930.813 112.059 933.882 112.308 938.527 112.64C943.173 112.806 947.32 112.89 950.97 112.89C955.117 112.89 958.85 112.806 962.168 112.64C965.486 112.474 967.726 112.308 968.887 112.142C980.832 130.254 992.776 147.536 1004.72 163.987C1016.67 180.437 1024.38 190.989 1027.86 195.642H1029.61L1029.11 132.83Z" stroke="black" stroke-width="28" mask="url(#path-2-outside-1_1_2)"/>
<path d="M1062 226.549C1069.47 225.054 1074.45 222.894 1076.93 220.069C1079.42 217.078 1080.67 212.093 1080.67 205.113L1080.92 104.415C1080.92 99.0975 1080.25 95.5249 1078.92 93.697C1077.76 91.8692 1075.36 90.9552 1071.71 90.9552L1063.75 91.4537L1062.75 89.9582L1044 76L1079.92 77.7448C1083.24 77.9109 1087.63 77.994 1093.11 77.994C1098.09 77.994 1108.54 77.3293 1124.46 76L1123.47 89.4597C1118.66 90.2905 1115.26 91.2876 1113.27 92.4507C1111.28 93.4478 1109.87 95.1925 1109.04 97.6851C1108.37 100.178 1107.87 104.249 1107.54 109.899L1106.05 148.284L1143.63 148.533C1152.92 148.533 1164.11 147.868 1177.22 146.539L1177.47 104.415C1177.47 99.0975 1176.81 95.5249 1175.48 93.697C1174.32 91.8692 1171.91 90.9552 1168.26 90.9552C1165.94 90.9552 1163.28 91.1214 1160.3 91.4537L1159.3 89.9582L1146 73.5L1168.01 77.7448L1188.67 77.994C1193.64 77.994 1204.59 77.3293 1221.52 76L1220.27 89.4597C1214.13 90.2905 1209.99 91.6199 1207.83 93.4478C1205.84 95.2756 1204.76 98.599 1204.59 103.418C1203.6 119.869 1202.77 138.23 1202.11 158.503C1201.61 178.776 1201.36 195.06 1201.36 207.357C1201.36 213.837 1202.11 218.241 1203.6 220.567C1205.09 222.894 1207.91 224.057 1212.06 224.057C1213.88 224.057 1217.29 223.807 1222.26 223.309L1223.26 224.555L1221.02 238.015C1218.86 238.015 1217.12 237.932 1215.79 237.766C1203.85 237.433 1194.56 237.267 1187.92 237.267L1143.63 243L1158.81 224.306C1163.95 224.14 1167.76 223.392 1170.25 222.063C1172.91 220.733 1174.73 218.407 1175.73 215.084C1176.72 211.594 1177.22 206.36 1177.22 199.381V164.236L1144.12 163.987C1140.31 163.987 1134.92 164.236 1127.95 164.734C1120.98 165.233 1113.52 165.814 1105.55 166.479L1104.81 207.107C1104.81 213.92 1105.47 218.49 1106.8 220.816C1108.12 222.977 1110.86 224.057 1115.01 224.057C1116.5 224.057 1119.99 223.807 1125.46 223.309L1126.21 224.555L1123.97 238.015C1121.31 237.849 1117.58 237.683 1112.77 237.516C1107.96 237.35 1103.31 237.267 1098.83 237.267C1092.03 237.267 1084.4 237.516 1075.94 238.015C1067.48 238.68 1051.01 247.335 1049.02 248L1062 226.549Z" stroke="black" stroke-width="28" mask="url(#path-2-outside-1_1_2)"/>
<path d="M1279.81 237.516L1280.56 226.799C1287.52 226.134 1292 225.386 1293.99 224.555C1296.15 223.724 1297.23 222.063 1297.23 219.57C1297.23 217.41 1296.73 215.001 1295.74 212.342L1291.01 196.14C1287.52 195.974 1280.97 195.891 1271.35 195.891C1266.21 195.891 1259.49 196.306 1251.19 197.137L1245.22 213.09C1244.39 216.413 1243.98 218.49 1243.98 219.321C1243.98 221.813 1244.72 223.558 1246.22 224.555C1247.87 225.552 1250.61 226.051 1254.43 226.051H1263.64L1264.63 227.297L1263.14 238.513C1261.31 238.347 1257.33 238.098 1251.19 237.766C1245.05 237.433 1239.25 237.267 1233.77 237.267C1228.3 237.267 1223.32 237.35 1218.84 237.516C1214.36 237.683 1211.38 237.766 1209.88 237.766L1211.38 225.801C1214.7 225.303 1217.35 224.14 1219.34 222.312C1221.5 220.318 1223.49 216.995 1225.31 212.342L1262.89 113.887L1289.27 110.646L1291.51 111.394C1293.5 118.705 1297.73 133.744 1304.2 156.509C1310.67 179.108 1316.47 197.719 1321.62 212.342C1323.11 217.161 1325.02 220.567 1327.34 222.561C1329.83 224.389 1333.64 225.552 1338.79 226.051L1339.53 227.297L1338.04 237.766C1336.38 237.766 1333.15 237.683 1328.34 237.516C1323.69 237.35 1318.88 237.267 1313.9 237.267C1306.94 237.267 1300.05 237.433 1293.25 237.766C1286.61 238.264 1282.38 238.597 1280.56 238.763L1279.81 237.516ZM1271.1 182.182C1277.57 182.182 1283.05 181.933 1287.52 181.434L1274.34 136.569H1271.85L1255.67 182.182H1271.1Z" stroke="black" stroke-width="28" mask="url(#path-2-outside-1_1_2)"/>
<path d="M1385.48 239.51C1366.73 239.51 1351.88 234.11 1340.93 223.309C1329.98 212.342 1324.51 197.47 1324.51 178.693C1324.51 165.067 1327.5 153.186 1333.47 143.049C1339.44 132.747 1347.82 124.771 1358.6 119.121C1369.39 113.471 1381.91 110.646 1396.18 110.646C1401.32 110.646 1406.71 110.979 1412.35 111.643C1417.99 112.308 1422.72 113.056 1426.54 113.887C1430.52 114.717 1433.09 115.216 1434.25 115.382L1435.25 117.376C1435.08 118.207 1434.67 120.284 1434 123.607C1433.34 126.765 1432.59 131.002 1431.76 136.319C1430.93 141.637 1430.35 147.287 1430.02 153.269L1412.85 154.266C1412.85 153.767 1412.93 152.604 1413.1 150.776C1413.27 148.948 1413.35 146.788 1413.35 144.296C1413.35 138.646 1411.28 134.492 1407.13 131.833C1403.15 129.008 1397.01 127.596 1388.71 127.596C1377.1 127.596 1368.14 131.417 1361.84 139.061C1355.53 146.539 1352.38 157.506 1352.38 171.963C1352.38 188.081 1355.7 200.71 1362.34 209.849C1369.14 218.822 1378.51 223.309 1390.46 223.309C1398.25 223.309 1404.39 221.149 1408.87 216.828C1413.52 212.342 1416.83 205.28 1418.82 195.642L1435.75 194.396C1435.41 196.556 1434.67 201.375 1433.51 208.852C1432.51 216.164 1431.76 223.06 1431.27 229.54L1429.52 231.784C1428.53 232.116 1426.04 232.947 1422.06 234.276C1418.24 235.439 1413.02 236.602 1406.38 237.766C1399.91 238.929 1392.94 239.51 1385.48 239.51Z" stroke="black" stroke-width="28" mask="url(#path-2-outside-1_1_2)"/>
<path d="M1452.99 134.824C1452.99 130.67 1452.49 127.928 1451.5 126.599C1450.5 125.103 1448.51 124.355 1445.52 124.355L1439.05 124.604L1438.06 123.109L1439.8 112.391L1465.68 112.89C1469.33 112.89 1474.14 112.723 1480.11 112.391C1486.25 111.893 1490.23 111.56 1492.06 111.394L1491.06 123.358C1485.92 124.189 1482.44 125.435 1480.61 127.097C1478.95 128.593 1478.04 131.085 1477.88 134.575L1475.88 212.342C1475.72 217.659 1476.22 221.232 1477.38 223.06C1478.54 224.888 1480.78 225.801 1484.1 225.801C1486.09 225.801 1487.83 225.718 1489.32 225.552C1490.82 225.386 1491.81 225.22 1492.31 225.054L1493.05 226.3L1491.31 237.766C1489.16 237.766 1485.26 237.683 1479.62 237.516C1474.14 237.35 1468.67 237.267 1463.19 237.267C1457.39 237.267 1451.91 237.35 1446.77 237.516C1441.63 237.683 1438.14 237.766 1436.32 237.766L1438.31 226.051C1444.28 225.22 1448.18 223.891 1450 222.063C1451.83 220.235 1452.74 216.496 1452.74 210.846L1452.99 134.824ZM1512.96 139.56C1516.78 136.07 1518.69 132.913 1518.69 130.088C1518.69 128.26 1517.77 126.931 1515.95 126.1C1514.12 125.103 1511.22 124.438 1507.24 124.106L1506.49 122.86L1508.23 111.643C1510.06 111.809 1513.71 112.059 1519.18 112.391C1524.82 112.723 1529.39 112.89 1532.87 112.89C1537.35 112.89 1541.75 112.806 1546.06 112.64C1550.54 112.474 1553.61 112.308 1555.27 112.142L1567.5 108L1554.77 124.355C1550.79 125.685 1546.97 127.845 1543.32 130.836C1539.84 133.661 1535.11 138.397 1529.14 145.043L1504.25 170.218L1533.62 209.849C1537.93 215.831 1541.83 220.152 1545.31 222.81C1548.96 225.303 1553.11 226.632 1557.76 226.799L1567.5 238.763L1557.51 237.766C1555.52 237.932 1552.12 238.264 1547.3 238.763C1542.66 239.427 1538.76 239.843 1535.61 240.009C1527.64 240.009 1520.1 234.608 1512.96 223.807L1480.61 175.951L1480.86 171.963L1512.96 139.56Z" stroke="black" stroke-width="28" mask="url(#path-2-outside-1_1_2)"/>
</g>
<defs>
<clipPath id="clip0_1_2">
<rect width="1600" height="320" fill="white"/>
</clipPath>
</defs>
</svg>
